<svg xmlns="http://www.w3.org/2000/svg" viewBox="0 0 24 24"><path fill="currentColor" d="M18 8a2 2 0 11-4 0 2 2 0 014 0"/><path fill="currentColor" fill-rule="evenodd" d="M11.943 1.25h.114c2.309 0 4.118 0 5.53.19 1.444.194 2.584.6 3.479 1.494.895.895 1.3 2.035 1.494 3.48.19 1.411.19 3.22.19 5.529v.088c0 1.909 0 3.471-.104 4.743-.104 1.28-.317 2.347-.795 3.235q-.314.586-.785 1.057c-.895.895-2.035 1.3-3.48 1.494-1.411.19-3.22.19-5.529.19h-.114c-2.309 0-4.118 0-5.53-.19-1.444-.194-2.584-.6-3.479-1.494-.793-.793-1.203-1.78-1.42-3.006-.215-1.203-.254-2.7-.262-4.558Q1.25 12.792 1.25 12v-.058c0-2.309 0-4.118.19-5.53.194-1.444.6-2.584 1.494-3.479.895-.895 2.035-1.3 3.48-1.494 1.411-.19 3.22-.19 5.529-.19m-5.33 1.676c-1.278.172-2.049.5-2.618 1.069-.57.57-.897 1.34-1.069 2.619-.174 1.3-.176 3.008-.176 5.386v.844l1.001-.876a2.3 2.3 0 013.141.104l4.29 4.29a2 2 0 002.564.222l.298-.21a3 3 0 013.732.225l2.83 2.547c.286-.598.455-1.384.545-2.493.098-1.205.099-2.707.099-4.653 0-2.378-.002-4.086-.176-5.386-.172-1.279-.5-2.05-1.069-2.62-.57-.569-1.34-.896-2.619-1.068-1.3-.174-3.008-.176-5.386-.176s-4.086.002-5.386.176" clip-rule="evenodd"/></svg>