<svg xmlns="http://www.w3.org/2000/svg" width="1em" height="1em" viewBox="0 0 24 24"><path fill="currentColor" d="M20.58 19.37l-2.99-8.36c-.21-.55-.68-.89-1.22-.89s-1 .34-1.23.91l-2.98 8.34a.75.75 0 101.41.51l.62-1.73h4.35l.62 1.73c.11.31.4.5.71.5.08 0 .17-.01.25-.04a.75.75 0 00.45-.96zm-5.84-2.73l1.64-4.59 1.64 4.59zm-2.55-8.79c-2.26 3.57-4.3 5.73-6.78 7.17a.746.746 0 01-1.02-.27.738.738 0 01.27-1.02c2.1-1.22 3.82-2.97 5.75-5.87H4.12c-.41 0-.75-.34-.75-.75s.34-.75.75-.75h3.75V4.38c0-.41.34-.75.75-.75s.75.34.75.75v1.98h3.75c.41 0 .75.34.75.75s-.34.75-.75.75h-.94zm.04 7.27c-.13 0-.26-.03-.38-.1-.65-.38-1.28-.8-1.87-1.24a.75.75 0 01.9-1.2c.54.41 1.13.79 1.73 1.14a.752.752 0 01-.38 1.4"/></svg>