<svg viewBox="0 0 512 512" xmlns="http://www.w3.org/2000/svg"><path fill="currentColor" d="M409.043 136.168h-19.822a.075.075 0 00-.075.075v252.903a26.63 26.63 0 0026.63 26.63 26.63 26.63 0 0026.629-26.63V169.53a33.361 33.361 0 00-33.362-33.362"/><path fill="currentColor" d="M362.517 389.146V102.882a33.287 33.287 0 00-33.287-33.287H102.882a33.287 33.287 0 00-33.287 33.287v292.922a46.601 46.601 0 0046.601 46.6h285.308a.949.949 0 00.957-.956.949.949 0 00-.707-.916 53.35 53.35 0 01-39.237-51.386M122.854 149.483a13.315 13.315 0 0113.314-13.315h53.259a13.315 13.315 0 0113.315 13.315v53.258a13.315 13.315 0 01-13.315 13.315h-53.259a13.315 13.315 0 01-13.314-13.315zm173.09 226.349H136.543c-7.165 0-13.315-5.51-13.673-12.674a13.315 13.315 0 0113.298-13.956H295.57c7.165 0 13.315 5.51 13.673 12.674a13.315 13.315 0 01-13.298 13.956m0-53.259H136.543c-7.165 0-13.315-5.509-13.673-12.674a13.315 13.315 0 0113.298-13.955H295.57c7.165 0 13.315 5.509 13.673 12.674a13.315 13.315 0 01-13.298 13.955m0-53.258H136.543c-7.165 0-13.315-5.51-13.673-12.674a13.315 13.315 0 0113.298-13.956H295.57c7.165 0 13.315 5.51 13.673 12.674a13.315 13.315 0 01-13.298 13.956m0-53.259H243.06c-7.165 0-13.315-5.509-13.673-12.674a13.315 13.315 0 0113.298-13.955h52.884c7.165 0 13.315 5.509 13.673 12.674a13.315 13.315 0 01-13.298 13.955m0-53.258H243.06c-7.165 0-13.315-5.51-13.673-12.674a13.315 13.315 0 0113.298-13.956h52.884c7.165 0 13.315 5.51 13.673 12.674a13.315 13.315 0 01-13.298 13.956"/></svg>