<svg data-name="Layer 1" viewBox="0 0 611.838 272.961" xmlns="http://www.w3.org/2000/svg"><path class="prefix__cls-1" d="M321.465.145a32.78 32.78 0 00-12.178 64.127v106.69a9.11 9.11 0 1018.211 0V64.271a32.84 32.84 0 0023.67-31.48A32.78 32.78 0 00321.465.144zM85.238 11.983a84.74 84.74 0 10-.55 169.478 84.65 84.65 0 0056.109-21.27 9.19 9.19 0 00-12.12-13.769 66.35 66.35 0 11-.14-99.52 9.194 9.194 0 0012.15-13.8 84.74 84.74 0 00-55.449-21.12zm382.301 0a84.74 84.74 0 10-.553 169.478 84.65 84.65 0 0056.131-21.27 9.192 9.192 0 00-12.18-13.769 66.35 66.35 0 11-.14-99.52 9.207 9.207 0 1012.19-13.8 84.74 84.74 0 00-55.448-21.12zm-279.957 1.045a9.2 9.2 0 00-9.195 9.504v74.19c0 57.019 27.74 84.74 84.74 84.74a9.2 9.2 0 000-18.39c-47.13 0-66.35-19.221-66.35-66.35v-74.19a9.2 9.2 0 00-9.195-9.504zm130.805 3.545a16.22 16.22 0 0116.22 16.218 16.23 16.23 0 01-16.22 16.221 16.22 16.22 0 010-32.44zm269.182 37.802a2.037 2.037 0 00-2.141 1.647l-2.281 11.94a2 2 0 00.3 1.52 2 2 0 001.29.85 2 2 0 002.37-1.64l2.32-11.9a2.037 2.037 0 00-1.858-2.417zm-21.465 4.354a2.022 2.022 0 00-1.547 3.142l6.771 10.061a2.02 2.02 0 003.35-2.26v-.05l-6.76-10a2.022 2.022 0 00-1.814-.893zm39.24 7.625a2 2 0 00-.986.348l-10 6.76a2.018 2.018 0 002.25 3.35l10.06-6.76a2 2 0 00.488-2.81 2 2 0 00-1.812-.888zm-51.176 10.363a2.038 2.038 0 00-.29 4.035l11.9 2.33a2 2 0 002.369-1.63 2 2 0 00-1.6-2.37l-11.89-2.33a2.038 2.038 0 00-.489-.035zm27.608 7.22a1.68 1.68 0 00-.54.165l-44.209 22.48a1.66 1.66 0 00-.88 1.77 1.57 1.57 0 00.16.46 1.67 1.67 0 001.281.89l16.5 1.95a139.49 139.49 0 01-19.22 20.31 6.41 6.41 0 108.199 9.85 149.14 149.14 0 0021-22.14l6.38 12.55a1.65 1.65 0 003.09-.39l10-45.91a1.65 1.65 0 00-1.199-1.96 1.68 1.68 0 00-.562-.024zm16.04 1.292a2.037 2.037 0 00-.279 4.033l11.89 2.33a2 2 0 002.37-1.63 2 2 0 00-1.6-2.37l-11.89-2.33a2.037 2.037 0 00-.49-.033zm-6.91 10.326a2.018 2.018 0 00-1.539 3.137l6.77 10.06a2.02 2.02 0 003.35-2.26l-6.77-10.05a2.018 2.018 0 00-1.81-.887zM318.924 213.596l-2.807 3.334h1.721l4.342-3.334zm-287.68 4.24c-2.117 0-3.794.516-5.029 1.547-1.218 1.014-1.826 2.4-1.826 4.16 0 2.365 1.262 3.876 3.785 4.534l4.791 1.279c2.364.622 3.547 1.67 3.547 3.146 0 .41-.072.8-.213 1.174-.124.356-.352.72-.688 1.094-.317.373-.82.675-1.507.906-.689.231-1.528.348-2.516.348-1.041 0-1.94-.134-2.7-.4-.74-.285-1.304-.66-1.693-1.122a5.064 5.064 0 01-.822-1.412 4.896 4.896 0 01-.236-1.547v-.132h-2.33c.017 1.066.184 2.008.502 2.826.335.817.75 1.475 1.244 1.972.494.48 1.085.882 1.773 1.202a8.366 8.366 0 002.012.613c.67.124 1.368.185 2.092.185 1.147 0 2.17-.133 3.07-.4.918-.267 1.65-.603 2.197-1.012.547-.409.997-.88 1.35-1.414.353-.55.591-1.076.715-1.574.141-.516.21-1.031.21-1.547 0-1.191-.362-2.213-1.085-3.066-.706-.854-1.71-1.457-3.016-1.813l-4.844-1.306c-1.164-.32-1.986-.695-2.462-1.122-.477-.426-.715-1.013-.715-1.76 0-.977.39-1.768 1.166-2.372.794-.605 1.842-.907 3.148-.907 1.535 0 2.718.346 3.547 1.04.83.675 1.254 1.645 1.272 2.908h2.328c-.018-1.903-.644-3.38-1.88-4.428-1.234-1.067-2.963-1.6-5.187-1.6zm21.465 0c-2.117 0-3.794.516-5.03 1.547-1.217 1.014-1.825 2.4-1.825 4.16 0 2.365 1.262 3.876 3.785 4.534l4.79 1.279c2.365.622 3.548 1.67 3.548 3.146 0 .41-.07.8-.211 1.174-.124.356-.354.72-.69 1.094-.317.373-.82.675-1.507.906-.689.231-1.528.348-2.516.348-1.041 0-1.94-.134-2.7-.4-.74-.285-1.305-.66-1.693-1.122a5.055 5.055 0 01-.82-1.412 4.896 4.896 0 01-.238-1.547v-.132h-2.33c.017 1.066.186 2.008.504 2.826.335.817.75 1.475 1.244 1.972.494.48 1.085.882 1.773 1.202a8.366 8.366 0 002.012.613c.67.124 1.366.185 2.09.185 1.147 0 2.17-.133 3.07-.4.918-.267 1.65-.603 2.197-1.012.547-.409.997-.88 1.35-1.414.353-.55.591-1.076.715-1.574.14-.516.21-1.031.21-1.547 0-1.191-.36-2.213-1.083-3.066-.706-.854-1.712-1.457-3.018-1.813l-4.844-1.306c-1.164-.32-1.984-.695-2.46-1.122-.477-.426-.715-1.013-.715-1.76 0-.977.387-1.768 1.164-2.372.794-.605 1.844-.907 3.15-.907 1.535 0 2.718.346 3.547 1.04.83.675 1.252 1.645 1.27 2.908h2.33c-.018-1.903-.646-3.38-1.881-4.428-1.236-1.067-2.965-1.6-5.188-1.6zm23.108 0c-2.77 0-5.012.942-6.723 2.826-1.712 1.867-2.568 4.322-2.568 7.362s.856 5.502 2.568 7.387c1.711 1.866 3.96 2.798 6.748 2.798 2.823 0 5.083-.95 6.777-2.853 1.694-1.902 2.541-4.294 2.541-7.174 0-3.129-.856-5.635-2.568-7.52-1.694-1.884-3.952-2.826-6.775-2.826zm24.085 0c-1.34 0-2.55.231-3.626.694-1.06.462-1.906 1.048-2.541 1.76a9.525 9.525 0 00-1.561 2.453c-.424.942-.716 1.85-.875 2.72-.141.871-.211 1.752-.211 2.64 0 .872.07 1.733.211 2.587.159.853.442 1.751.848 2.693a9.674 9.674 0 001.562 2.426c.635.693 1.473 1.272 2.514 1.734 1.059.445 2.25.666 3.574.666 4.711 0 7.357-2.569 7.94-7.707h-2.542c-.3 1.885-.873 3.281-1.72 4.188-.847.889-2.065 1.334-3.653 1.334-1.923 0-3.448-.713-4.578-2.135-1.129-1.44-1.695-3.377-1.695-5.812 0-2.49.539-4.455 1.615-5.895 1.094-1.44 2.577-2.158 4.447-2.158 1.536 0 2.718.346 3.547 1.039.83.693 1.384 1.732 1.666 3.119h2.516c-.759-4.231-3.238-6.346-7.438-6.346zm87.37 0c-2.77 0-5.011.942-6.723 2.826-1.712 1.867-2.566 4.322-2.566 7.362s.854 5.502 2.566 7.387c1.712 1.866 3.962 2.798 6.75 2.798 2.823 0 5.081-.95 6.775-2.853 1.694-1.902 2.541-4.294 2.541-7.174 0-3.129-.854-5.635-2.566-7.52-1.694-1.884-3.954-2.826-6.777-2.826zm99.334 0c-2.118 0-3.793.516-5.028 1.547-1.217 1.014-1.826 2.4-1.826 4.16 0 2.365 1.26 3.876 3.783 4.534l4.791 1.279c2.365.622 3.547 1.67 3.547 3.146 0 .41-.07.8-.21 1.174-.124.356-.355.72-.69 1.094-.318.373-.82.675-1.508.906-.688.231-1.526.348-2.514.348-1.04 0-1.942-.134-2.7-.4-.742-.285-1.306-.66-1.694-1.122a5.055 5.055 0 01-.82-1.412 4.896 4.896 0 01-.239-1.547v-.132h-2.33c.018 1.066.186 2.008.504 2.826.335.817.75 1.475 1.244 1.972.494.48 1.085.882 1.774 1.202a8.366 8.366 0 002.011.613c.67.124 1.367.185 2.09.185 1.147 0 2.17-.133 3.07-.4.918-.267 1.65-.603 2.198-1.012.547-.409.996-.88 1.35-1.414.352-.55.59-1.076.714-1.574.141-.516.211-1.031.211-1.547 0-1.191-.36-2.213-1.084-3.066-.706-.854-1.712-1.457-3.017-1.813l-4.844-1.306c-1.165-.32-1.985-.695-2.461-1.122-.477-.426-.715-1.013-.715-1.76 0-.977.388-1.768 1.164-2.372.794-.605 1.845-.907 3.15-.907 1.536 0 2.718.346 3.547 1.04.83.675 1.252 1.645 1.27 2.908h2.33c-.018-1.903-.644-3.38-1.879-4.428-1.235-1.067-2.966-1.6-5.19-1.6zm235.855 0c-2.117 0-3.792.516-5.027 1.547-1.218 1.014-1.828 2.4-1.828 4.16 0 2.365 1.262 3.876 3.785 4.534l4.79 1.279c2.365.622 3.548 1.67 3.548 3.146 0 .41-.07.8-.211 1.174-.124.356-.354.72-.69 1.094-.317.373-.82.675-1.508.906-.688.231-1.525.348-2.513.348-1.041 0-1.943-.134-2.701-.4-.741-.285-1.306-.66-1.694-1.122a5.056 5.056 0 01-.82-1.412 4.896 4.896 0 01-.238-1.547v-.132h-2.33c.017 1.066.186 2.008.503 2.826.336.817.75 1.475 1.245 1.972.494.48 1.085.882 1.773 1.202a8.366 8.366 0 002.012.613c.67.124 1.366.185 2.09.185 1.147 0 2.17-.133 3.07-.4.918-.267 1.65-.603 2.197-1.012.547-.409.997-.88 1.35-1.414.353-.55.591-1.076.715-1.574.14-.516.21-1.031.21-1.547 0-1.191-.36-2.213-1.083-3.066-.706-.854-1.712-1.457-3.018-1.813l-4.844-1.306c-1.164-.32-1.984-.695-2.46-1.122-.477-.426-.715-1.013-.715-1.76 0-.977.387-1.768 1.164-2.372.794-.605 1.844-.907 3.15-.907 1.535 0 2.718.346 3.547 1.04.83.675 1.252 1.645 1.27 2.908h2.33c-.018-1.903-.646-3.38-1.881-4.428-1.236-1.067-2.965-1.6-5.188-1.6zm-514.086.32l-6.88 19.44h2.62l2.037-5.84h7.438l1.984 5.84h2.754l-6.775-19.44zm106.879 0v19.44h2.486v-19.44zm15.8 0l-6.882 19.44h2.621l2.04-5.84h7.437l1.984 5.84h2.752l-6.775-19.44zm14.956 0v2.186h6.351v17.254h2.461v-17.254h6.327v-2.185zm22.39 0v19.44h2.489v-19.44zm35.204 0v19.44h2.328v-15.76l9.978 15.76h2.78v-19.44h-2.329v15.893l-10.085-15.892zm33.56 0v19.44h7.438c2.435 0 4.35-.861 5.744-2.586 1.411-1.742 2.117-4.124 2.117-7.146 0-3.023-.698-5.397-2.092-7.121-1.394-1.725-3.317-2.586-5.77-2.586zm22.287 0v19.44h13.842v-2.185h-11.38v-6.668h10.507v-2.186h-10.508v-6.215h10.905v-2.185zm52.46 0v19.44h13.841v-2.185h-11.38v-6.668h10.507v-2.186h-10.508v-6.215h10.905v-2.185zm19.241 0v2.186h6.352v17.254h2.461v-17.254h6.326v-2.185zm21.862 0v13.653c0 1.973.653 3.538 1.959 4.693 1.323 1.138 3.132 1.707 5.426 1.707 2.258 0 4.059-.577 5.4-1.732 1.359-1.156 2.037-2.712 2.037-4.668v-13.652h-2.46v13.652c0 1.316-.443 2.347-1.325 3.094-.882.746-2.1 1.12-3.652 1.12-1.5 0-2.7-.347-3.6-1.04-.882-.711-1.322-1.77-1.322-3.174v-13.652zm22.869 0v19.44h7.437c2.436 0 4.35-.861 5.745-2.586 1.411-1.742 2.117-4.124 2.117-7.146 0-3.023-.698-5.397-2.092-7.121-1.394-1.725-3.317-2.586-5.77-2.586zm22.814 0v19.44h2.489v-19.44zm15.803 0l-6.883 19.44h2.621l2.038-5.84h7.437l1.986 5.84h2.752l-6.775-19.44zm16.277 0v19.44h2.329v-15.76l9.978 15.76h2.78v-19.44h-2.329v15.893l-10.086-15.892zm21.81 0v2.186h6.353v17.254h2.46v-17.254h6.327v-2.185zm32.29 0v19.44h13.844v-2.185h-11.383v-6.668h10.508v-2.186h-10.508v-6.215h10.906v-2.185zm62.889 0v19.44h13.842v-2.185h-11.381v-6.668h10.508v-2.186h-10.508v-6.215h10.904v-2.185zm20.564 0v19.44h2.33v-15.76l9.979 15.76h2.78v-19.44h-2.331v15.893l-10.084-15.892zm-492.513 1.868c2.082 0 3.749.737 5.002 2.213 1.252 1.475 1.878 3.439 1.878 5.892 0 2.347-.633 4.25-1.904 5.707-1.253 1.458-2.904 2.188-4.951 2.188-2.047 0-3.704-.73-4.975-2.188-1.252-1.475-1.88-3.412-1.88-5.812 0-2.4.628-4.33 1.88-5.787 1.253-1.476 2.903-2.213 4.95-2.213zm111.455 0c2.082 0 3.75.737 5.004 2.213 1.252 1.475 1.878 3.439 1.878 5.892 0 2.347-.635 4.25-1.906 5.707-1.253 1.458-2.902 2.188-4.949 2.188-2.047 0-3.706-.73-4.977-2.188-1.252-1.475-1.878-3.412-1.878-5.812 0-2.4.626-4.33 1.878-5.787 1.253-1.476 2.903-2.213 4.95-2.213zm52.353.318h4.553c1.906 0 3.354.64 4.342 1.92.988 1.28 1.482 3.156 1.482 5.627 0 2.453-.494 4.32-1.482 5.6-.988 1.28-2.436 1.922-4.342 1.922h-4.553zm138.719 0h4.553c1.905 0 3.351.64 4.34 1.92.988 1.28 1.482 3.156 1.482 5.627 0 2.453-.494 4.32-1.483 5.6-.988 1.28-2.434 1.922-4.34 1.922h-4.552zm-368.406.48l2.964 8.854h-6.14zm122.677 0l2.965 8.854h-6.14zm283.446 0l2.965 8.854h-6.141zm58.574 7.948v2.773h2.752v-2.773zm30.994 0v2.773h2.752v-2.773zM318 250.422a7.69 7.69 0 00-4.192 1.14 7.23 7.23 0 00-2.78 3.21 11.42 11.42 0 00-1 4.84v.94a10 10 0 002.13 6.83 7.4 7.4 0 005.851 2.42 9.19 9.19 0 004-.83 6.35 6.35 0 002.719-2.331 6.89 6.89 0 001.07-3.479l-4.469-.03a3.15 3.15 0 01-.88 2.34 3.45 3.45 0 01-2.401.74 2.79 2.79 0 01-2.61-1.29 9.12 9.12 0 01-.75-4.31v-1.34a8.07 8.07 0 01.83-4 2.71 2.71 0 012.481-1.27 3.6 3.6 0 012.488.75 3.45 3.45 0 01.872 2.48h4.52a7.07 7.07 0 00-2.36-5 8.16 8.16 0 00-5.52-1.81zm157.898 0a7.72 7.72 0 00-4.19 1.14 7.23 7.23 0 00-2.78 3.21 11.42 11.42 0 00-1 4.84v.94a10 10 0 002.13 6.83 7.4 7.4 0 005.85 2.42 9.16 9.16 0 004-.83 6.44 6.44 0 002.73-2.331 7 7 0 001.06-3.479l-4.47-.03a3.15 3.15 0 01-.88 2.34 3.45 3.45 0 01-2.4.74 2.76 2.76 0 01-2.6-1.29 9 9 0 01-.759-4.31v-1.34a8.18 8.18 0 01.83-4 2.71 2.71 0 012.479-1.27 3.58 3.58 0 012.49.75 3.45 3.45 0 01.871 2.48h4.53a7.12 7.12 0 00-2.37-5 8.16 8.16 0 00-5.521-1.81zm-284.887.02a8.63 8.63 0 00-3.652 1.12 7.53 7.53 0 00-2.891 3.26 11.13 11.13 0 00-1 4.89v1a10.63 10.63 0 001.08 4.759 7.55 7.55 0 002.9 3.191 8.22 8.22 0 004.28 1.11 7.28 7.28 0 001.14-.08l4.051 3.27 2.77-2.36-3-2.4a8.05 8.05 0 002.39-3.13 11.11 11.11 0 00.87-4.56l-.02-.89a10.78 10.78 0 00-1.06-4.82 7.67 7.67 0 00-2.92-3.24 8.63 8.63 0 00-4.938-1.12zm-127.309.03a8.63 8.63 0 00-3.654 1.12 7.56 7.56 0 00-2.92 3.27 11.26 11.26 0 00-1 4.88v1.06a10.8 10.8 0 001.09 4.73 7.52 7.52 0 002.91 3.17 8.25 8.25 0 004.27 1.1 8.14 8.14 0 004.29-1.14 7.73 7.73 0 002.91-3.271 11.18 11.18 0 001-4.879l.01-.86a10.78 10.78 0 00-1.06-4.82 7.64 7.64 0 00-2.91-3.24 8.63 8.63 0 00-4.936-1.12zm275.75 0a8.63 8.63 0 00-3.654 1.12 7.47 7.47 0 00-2.91 3.27 11.12 11.12 0 00-1 4.88v1.06a10.8 10.8 0 001.09 4.73 7.64 7.64 0 002.91 3.17 8.28 8.28 0 004.27 1.1 8.09 8.09 0 004.29-1.14 7.6 7.6 0 002.91-3.271 11.18 11.18 0 001-4.879l-.05-.86a10.92 10.92 0 00-1-4.82 7.73 7.73 0 00-2.92-3.24 8.63 8.63 0 00-4.936-1.12zm212.7 0a8.63 8.63 0 00-3.653 1.12 7.56 7.56 0 00-2.92 3.27 11.26 11.26 0 00-1 4.88v1.06a10.8 10.8 0 001.09 4.73 7.58 7.58 0 002.91 3.17 8.25 8.25 0 004.27 1.1 8.14 8.14 0 004.289-1.14 7.6 7.6 0 002.91-3.271 11.18 11.18 0 001-4.879l.01-.86a10.78 10.78 0 00-1.059-4.82 7.64 7.64 0 00-2.91-3.24 8.63 8.63 0 00-4.937-1.12zm-549.834.23v18.84h4.53v-18.84zm12.191 0v18.84h4.539v-11.72l6.68 11.72h4.521v-18.84h-4.531v11.72l-6.67-11.72zm23.12 0v18.84h4.55v-7.51h7.32v-3.49h-7.32v-4.34h8.058v-3.5zm41.82 0v18.84h4.538v-6.66h2.461l3.35 6.66h4.85v-.19l-3.94-7.61a5.64 5.64 0 002.49-2.101 6.1 6.1 0 00.801-3.26 5 5 0 00-1.89-4.199 8.29 8.29 0 00-5.24-1.48zm21.83 0v18.83h4.539v-4.4l-.44-9 4.57 13.42h3l4.551-13.411-.441 9v4.4h4.56v-18.84h-6l-4.199 13.112-4.201-13.111zm33.43 0l-6.911 18.84h4.82l1.08-3.52h6.23l1.18 3.52h4.88l-7-18.84zm14.54 0v3.5h5.549v15.34h4.58v-15.34h5.65l-.029-3.5zm22.549 0v18.84h4.49l.041-18.84zm34.93 0v12.38a6.38 6.38 0 002 4.9 7.8 7.8 0 005.42 1.78 9.13 9.13 0 003.95-.8 5.76 5.76 0 002.56-2.3 7 7 0 00.9-3.63v-12.33h-4.53v12.31a3.65 3.65 0 01-.72 2.52 2.8 2.8 0 01-2.139.78c-1.87 0-2.871-1.04-2.871-3.1v-12.51zm22.15 0v18.84h13v-3.49h-8.44v-4.51h7.151l-.031-3.34h-7.15v-4h8.47v-3.5zm30.451 0v18.84h13v-3.49h-8.441v-4.51h7.15l-.029-3.34h-7.15v-4h8.47v-3.5zm18.658 0v3.5h5.551v15.34h4.551v-15.34h5.648v-3.5zm77.23 0v18.83h4.542v-4.4l-.441-9 4.57 13.42h3l4.55-13.411-.439 9v4.4h4.58v-18.84h-6l-4.191 13.112-4.21-13.111zm27.782 0v18.83h4.549v-4.4l-.44-9 4.57 13.42h3l4.56-13.411-.44 9v4.4h4.52v-18.84h-6l-4.19 13.112-4.209-13.111zm27.649 0v12.42a6.42 6.42 0 002 4.9 7.81 7.81 0 005.431 1.78 9.08 9.08 0 003.94-.8 5.79 5.79 0 002.57-2.34 7.13 7.13 0 00.889-3.63v-12.33h-4.52v12.31a3.65 3.65 0 01-.73 2.52 2.76 2.76 0 01-2.13.78c-1.88 0-2.83-1.04-2.88-3.1v-12.51zm22.15 0v18.84h4.56v-11.72l6.68 11.72h4.52l-.02-18.84h-4.529v11.72l-6.67-11.72zm23.47 0v18.84h4.53v-18.84zm39.53 0l-6.94 18.84h4.85l1.09-3.52h6.26l1.14 3.52h4.881l-7-18.84zm14.61 0v3.5h5.55v15.34h4.541v-15.34h5.658v-3.5zm22.48 0v18.84h4.531v-18.84zm35.01 0v18.84h4.54v-11.72l6.68 11.72h4.52v-18.84h-4.53v11.72l-6.67-11.72zm-376.2 3.26a3 3 0 012.69 1.49 8 8 0 01.93 4.27v.82a8 8 0 01-.93 4.21 3 3 0 01-2.66 1.47 3 3 0 01-2.729-1.49 8.07 8.07 0 01-.92-4.26v-.87a8 8 0 01.92-4.211 3 3 0 012.7-1.43zm361.1 0a3 3 0 012.69 1.49 7.91 7.91 0 01.94 4.27l.02.86a8 8 0 01-1 4.21 3 3 0 01-2.65 1.47 3 3 0 01-2.69-1.53 8.19 8.19 0 01-.92-4.26v-1.39c.13-3.41 1.34-5.12 3.61-5.12zm-488.45.04a3 3 0 012.69 1.45 7.91 7.91 0 01.94 4.27l.01.86a8 8 0 01-.95 4.21 3 3 0 01-2.65 1.47 3 3 0 01-2.73-1.49 8.1 8.1 0 01-.92-4.26v-1.39c.126-3.414 1.33-5.12 3.61-5.12zm275.77 0a3 3 0 012.68 1.45 7.91 7.91 0 01.94 4.27l.06.86a7.86 7.86 0 01-1 4.21 3 3 0 01-2.65 1.47 3 3 0 01-2.729-1.49 8.19 8.19 0 01-.92-4.26v-1.39c.133-3.414 1.34-5.12 3.62-5.12zm-256.119.19h2.88a2.53 2.53 0 011.939.699 3.1 3.1 0 010 3.81 2.61 2.61 0 01-1.95.68h-2.88zm52.799 1.77l2 6.55h-4zm361.121.02l2 6.53h-4z"/></svg>