<?xml version="1.0" encoding="UTF-8" standalone="no"?>
<svg
   id="Layer_1"
   data-name="Layer 1"
   viewBox="0 0 611.83777 272.96131"
   version="1.1"
   xmlns="http://www.w3.org/2000/svg"
   xmlns:svg="http://www.w3.org/2000/svg"
   xmlns:rdf="http://www.w3.org/1999/02/22-rdf-syntax-ns#"
   xmlns:cc="http://creativecommons.org/ns#"
   xmlns:dc="http://purl.org/dc/elements/1.1/">
  <metadata
     id="metadata137">
    <rdf:RDF>
      <cc:Work
         rdf:about="">
        <dc:format>image/svg+xml</dc:format>
        <dc:type
           rdf:resource="http://purl.org/dc/dcmitype/StillImage" />
        <dc:title>clic_color_info</dc:title>
      </cc:Work>
    </rdf:RDF>
  </metadata>
  <defs
     id="defs4">
  </defs>
  <title
     id="title6">clic_color_info</title>
  <path
     id="path8"
     class="cls-1"
     d="M 321.46499,0.14489988 A 32.78,32.78 0 0 0 309.28726,64.271853 V 170.96131 a 9.11,9.11 0 1 0 18.21093,0 V 64.271853 A 32.84,32.84 0 0 0 351.16812,32.791385 32.78,32.78 0 0 0 321.46499,0.14489988 Z M 85.238423,11.982791 A 84.74,84.74 0 1 0 84.687642,181.46131 84.65,84.65 0 0 0 140.79702,160.19178 9.19,9.19 0 0 0 128.67788,146.42225 66.35,66.35 0 1 1 128.53726,46.902713 9.1936603,9.1936603 0 0 0 140.68765,33.101931 84.74,84.74 0 0 0 85.238423,11.982791 Z m 382.300787,0 a 84.74,84.74 0 1 0 -0.55274,169.478519 84.65,84.65 0 0 0 56.13086,-21.26953 9.1919163,9.1919163 0 0 0 -12.17968,-13.76953 66.35,66.35 0 1 1 -0.14063,-99.519537 9.2065782,9.2065782 0 1 0 12.18945,-13.800782 84.74,84.74 0 0 0 -55.44726,-21.11914 z m -279.95703,1.044922 a 9.2,9.2 0 0 0 -9.19531,9.503906 v 74.189453 c 0,57.019948 27.74029,84.740238 84.74023,84.740238 a 9.2,9.2 0 0 0 0,-18.38867 c -47.12995,0 -66.34961,-19.22161 -66.34961,-66.351568 V 22.531619 a 9.2,9.2 0 0 0 -9.19531,-9.503906 z m 130.80469,3.544922 a 16.22,16.22 0 0 1 16.2207,16.21875 16.23,16.23 0 0 1 -16.2207,16.220703 16.22,16.22 0 0 1 0,-32.439453 z m 269.18164,37.802734 a 2.0367192,2.0367192 0 0 0 -2.14063,1.646484 l -2.28125,11.939454 a 2,2 0 0 0 0.30078,1.521484 2,2 0 0 0 1.28906,0.849609 2,2 0 0 0 2.3711,-1.640625 l 2.32031,-11.90039 a 2.0367192,2.0367192 0 0 0 -1.85937,-2.416016 z m -21.46485,4.353516 a 2.0218865,2.0218865 0 0 0 -1.54687,3.142578 l 6.77148,10.060547 a 2.0205259,2.0205259 0 0 0 3.34961,-2.259766 v -0.05078 l -6.75976,-10 a 2.0218865,2.0218865 0 0 0 -1.81446,-0.892579 z m 39.24024,7.625 a 2,2 0 0 0 -0.98633,0.347656 l -10,6.759766 a 2.0183825,2.0183825 0 0 0 2.25,3.351562 l 10.06055,-6.761719 a 2,2 0 0 0 0.48828,-2.808593 2,2 0 0 0 -1.8125,-0.888672 z m -51.17578,10.363281 a 2.0376702,2.0376702 0 0 0 -0.29102,4.035156 l 11.90039,2.330078 a 2,2 0 0 0 2.36914,-1.630859 2,2 0 0 0 -1.59961,-2.369141 L 554.6564,76.752322 a 2.0376702,2.0376702 0 0 0 -0.48828,-0.03516 z m 27.60742,7.220703 a 1.68,1.68 0 0 0 -0.53907,0.164062 L 537.02749,106.5824 a 1.66,1.66 0 0 0 -0.88086,1.76953 1.57,1.57 0 0 0 0.16016,0.46094 1.67,1.67 0 0 0 1.28125,0.88867 l 16.5,1.95117 a 139.49,139.49 0 0 1 -19.22071,20.3086 6.41,6.41 0 1 0 8.19922,9.85156 149.14,149.14 0 0 0 21,-22.14062 l 6.38086,12.54882 a 1.65,1.65 0 0 0 3.08985,-0.38867 l 10,-45.910156 a 1.65,1.65 0 0 0 -1.19922,-1.960937 1.68,1.68 0 0 0 -0.5625,-0.02344 z m 16.04101,1.291016 a 2.0367192,2.0367192 0 0 0 -0.27929,4.033203 l 11.89062,2.330078 a 2,2 0 0 0 2.36914,-1.630859 2,2 0 0 0 -1.59961,-2.369141 l -11.89062,-2.330078 a 2.0367192,2.0367192 0 0 0 -0.49024,-0.0332 z m -6.91015,10.326172 a 2.0177339,2.0177339 0 0 0 -1.53907,3.136718 l 6.76954,10.060545 a 2.0205259,2.0205259 0 0 0 3.3496,-2.25976 l -6.76953,-10.050785 a 2.0177339,2.0177339 0 0 0 -1.81054,-0.886718 z m -271.98243,118.041013 -2.80664,3.33399 h 1.72071 l 4.34179,-3.33399 z m -287.679687,4.24024 c -2.117432,0 -3.794129,0.51576 -5.029297,1.54687 -1.217524,1.01333 -1.826172,2.40015 -1.826172,4.16016 0,2.36444 1.261883,3.87542 3.785156,4.5332 l 4.791016,1.2793 c 2.364465,0.62222 3.546875,1.67092 3.546875,3.14648 0,0.40889 -0.07173,0.8005 -0.212891,1.17383 -0.123516,0.35556 -0.35224,0.72042 -0.6875,1.09375 -0.317614,0.37333 -0.819647,0.67514 -1.507813,0.90625 -0.688165,0.23111 -1.52749,0.34766 -2.515624,0.34766 -1.041071,0 -1.940472,-0.13373 -2.699219,-0.40039 -0.741101,-0.28445 -1.305164,-0.65888 -1.69336,-1.1211 -0.37055,-0.46222 -0.645813,-0.93211 -0.822265,-1.41211 -0.158807,-0.48 -0.236328,-0.99577 -0.236328,-1.54687 v -0.13281 h -2.330078 c 0.01765,1.06667 0.184338,2.0084 0.501953,2.82617 0.33526,0.81778 0.750073,1.47487 1.24414,1.97265 0.494068,0.48 1.085273,0.88118 1.773438,1.20118 0.688165,0.30222 1.358844,0.5066 2.011719,0.61328 0.67052,0.12444 1.36834,0.18554 2.091796,0.18554 1.146942,0 2.170404,-0.13372 3.070313,-0.40039 0.917553,-0.26666 1.650262,-0.60283 2.197265,-1.01171 0.547004,-0.4089 0.996705,-0.88073 1.34961,-1.41407 0.352905,-0.55111 0.591327,-1.07644 0.714844,-1.57422 0.141161,-0.51556 0.210937,-1.03132 0.210937,-1.54687 0,-1.19111 -0.362482,-2.21308 -1.085937,-3.06641 -0.705811,-0.85333 -1.709876,-1.45694 -3.015625,-1.8125 l -4.84375,-1.30664 c -1.164588,-0.32 -1.986469,-0.69443 -2.462891,-1.12109 -0.476422,-0.42667 -0.714844,-1.0131 -0.714844,-1.75977 0,-0.97778 0.389624,-1.7686 1.166016,-2.37304 0.794037,-0.60444 1.842688,-0.90625 3.148437,-0.90625 1.535138,0 2.717549,0.34573 3.546875,1.03906 0.829326,0.67555 1.253837,1.64598 1.271485,2.9082 h 2.328125 c -0.01765,-1.90222 -0.643738,-3.37884 -1.878906,-4.42773 -1.235169,-1.06667 -2.964198,-1.59961 -5.1875,-1.59961 z m 21.464843,0 c -2.117431,0 -3.794128,0.51576 -5.029297,1.54687 -1.217523,1.01333 -1.826172,2.40015 -1.826172,4.16016 1e-6,2.36444 1.261884,3.87542 3.785157,4.5332 l 4.791015,1.2793 c 2.364466,0.62222 3.546875,1.67092 3.546875,3.14648 0,0.40889 -0.06977,0.8005 -0.210937,1.17383 -0.123517,0.35556 -0.354193,0.72042 -0.689453,1.09375 -0.317615,0.37333 -0.819648,0.67514 -1.507813,0.90625 -0.688165,0.23111 -1.52749,0.34766 -2.515625,0.34766 -1.04107,0 -1.940472,-0.13373 -2.699219,-0.40039 -0.741101,-0.28445 -1.305163,-0.65888 -1.693359,-1.1211 -0.370551,-0.46222 -0.64386,-0.93211 -0.820312,-1.41211 -0.158808,-0.48 -0.238282,-0.99577 -0.238282,-1.54687 v -0.13281 h -2.330078 c 0.01765,1.06667 0.186292,2.0084 0.503907,2.82617 0.33526,0.81778 0.750073,1.47487 1.24414,1.97265 0.494068,0.48 1.085273,0.88118 1.773438,1.20118 0.688165,0.30222 1.358844,0.5066 2.011718,0.61328 0.670521,0.12444 1.366388,0.18554 2.089844,0.18554 1.146942,0 2.170404,-0.13372 3.070313,-0.40039 0.917553,-0.26666 1.650262,-0.60283 2.197265,-1.01171 0.547004,-0.4089 0.996704,-0.88073 1.34961,-1.41407 0.352905,-0.55111 0.591326,-1.07644 0.714843,-1.57422 0.141162,-0.51556 0.210938,-1.03132 0.210938,-1.54687 0,-1.19111 -0.360529,-2.21308 -1.083985,-3.06641 -0.70581,-0.85333 -1.711828,-1.45694 -3.017578,-1.8125 l -4.84375,-1.30664 c -1.164588,-0.32 -1.984516,-0.69443 -2.460937,-1.12109 -0.476422,-0.42667 -0.714844,-1.0131 -0.714844,-1.75977 0,-0.97778 0.387672,-1.7686 1.164063,-2.37304 0.794037,-0.60444 1.844641,-0.90625 3.15039,-0.90625 1.535138,0 2.717548,0.34573 3.546875,1.03906 0.829325,0.67555 1.251884,1.64598 1.269531,2.9082 h 2.330079 c -0.01765,-1.90222 -0.645691,-3.37884 -1.88086,-4.42773 -1.235168,-1.06667 -2.964197,-1.59961 -5.1875,-1.59961 z m 23.107422,0 c -2.770306,0 -5.011066,0.94172 -6.722656,2.82617 -1.711591,1.86667 -2.568359,4.32133 -2.568359,7.36133 -10e-7,3.04 0.856768,5.50227 2.568359,7.38672 1.71159,1.86666 3.960096,2.79882 6.748047,2.79882 2.823242,0 5.083398,-0.95129 6.777344,-2.85351 1.693945,-1.90223 2.541015,-4.29383 2.541015,-7.17383 0,-3.12889 -0.856769,-5.63509 -2.568359,-7.51953 -1.693945,-1.88445 -3.952149,-2.82617 -6.775391,-2.82617 z m 24.085938,0 c -1.341041,0 -2.550593,0.23113 -3.626953,0.69336 -1.058716,0.46222 -1.905787,1.04865 -2.541016,1.75976 -0.617585,0.69334 -1.137061,1.5109 -1.560547,2.45313 -0.423486,0.94222 -0.716193,1.84959 -0.875,2.7207 -0.141162,0.87111 -0.210937,1.75174 -0.210937,2.64063 -10e-7,0.87111 0.06978,1.7326 0.210937,2.58593 0.158807,0.85334 0.441815,1.75114 0.847656,2.69336 0.423486,0.92445 0.944916,1.73245 1.5625,2.42578 0.63523,0.69334 1.472602,1.27216 2.513672,1.73438 1.058716,0.44444 2.250824,0.66601 3.574219,0.66601 4.711293,0 7.357163,-2.56925 7.939453,-7.70703 h -2.54101 c -0.29997,1.88445 -0.87373,3.28084 -1.7207,4.1875 -0.84698,0.88889 -2.06427,1.33399 -3.652353,1.33399 -1.923334,0 -3.448828,-0.71255 -4.578124,-2.13477 -1.129297,-1.44 -1.695313,-3.37695 -1.695313,-5.8125 0,-2.48889 0.538874,-4.45453 1.615234,-5.89453 1.094007,-1.44 2.576868,-2.1582 4.447266,-2.1582 1.53514,0 2.71756,0.34573 3.54688,1.03906 0.82933,0.69333 1.3837,1.73247 1.66602,3.11914 h 2.51562 c -0.75875,-4.23112 -3.23793,-6.3457 -7.437504,-6.3457 z m 87.369144,0 c -2.7703,0 -5.01106,0.94172 -6.72266,2.82617 -1.71159,1.86667 -2.5664,4.32133 -2.5664,7.36133 0,3.04 0.85481,5.50227 2.5664,7.38672 1.7116,1.86666 3.96206,2.79882 6.75,2.79882 2.82325,0 5.08145,-0.95129 6.7754,-2.85351 1.69394,-1.90223 2.54101,-4.29383 2.54101,-7.17383 0,-3.12889 -0.85481,-5.63509 -2.56641,-7.51953 -1.69394,-1.88445 -3.9541,-2.82617 -6.77734,-2.82617 z m 99.33399,0 c -2.11743,0 -3.79218,0.51576 -5.02735,1.54687 -1.21753,1.01333 -1.82617,2.40015 -1.82617,4.16016 0,2.36444 1.25993,3.87542 3.7832,4.5332 l 4.79102,1.2793 c 2.36447,0.62222 3.54687,1.67092 3.54687,3.14648 0,0.40889 -0.0698,0.8005 -0.21093,1.17383 -0.12352,0.35556 -0.3542,0.72042 -0.68946,1.09375 -0.31761,0.37333 -0.81964,0.67514 -1.50781,0.90625 -0.68816,0.23111 -1.52554,0.34766 -2.51367,0.34766 -1.04107,0 -1.94243,-0.13373 -2.70117,-0.40039 -0.7411,-0.28445 -1.30516,-0.65888 -1.69336,-1.1211 -0.37055,-0.46222 -0.64387,-0.93211 -0.82032,-1.41211 -0.1588,-0.48 -0.23828,-0.99577 -0.23828,-1.54687 v -0.13281 h -2.33007 c 0.0176,1.06667 0.18629,2.0084 0.5039,2.82617 0.33526,0.81778 0.75007,1.47487 1.24414,1.97265 0.49407,0.48 1.08528,0.88118 1.77344,1.20118 0.68816,0.30222 1.35884,0.5066 2.01172,0.61328 0.67052,0.12444 1.36638,0.18554 2.08984,0.18554 1.14694,0 2.17041,-0.13372 3.07031,-0.40039 0.91756,-0.26666 1.65027,-0.60283 2.19727,-1.01171 0.54701,-0.4089 0.99671,-0.88073 1.34961,-1.41407 0.35291,-0.55111 0.59133,-1.07644 0.71484,-1.57422 0.14117,-0.51556 0.21094,-1.03132 0.21094,-1.54687 0,-1.19111 -0.36052,-2.21308 -1.08398,-3.06641 -0.70581,-0.85333 -1.71184,-1.45694 -3.01758,-1.8125 l -4.84375,-1.30664 c -1.16459,-0.32 -1.98452,-0.69443 -2.46094,-1.12109 -0.47642,-0.42667 -0.71484,-1.0131 -0.71484,-1.75977 0,-0.97778 0.38767,-1.7686 1.16406,-2.37304 0.79404,-0.60444 1.84464,-0.90625 3.15039,-0.90625 1.53514,0 2.71754,0.34573 3.54688,1.03906 0.8293,0.67555 1.25186,1.64598 1.26953,2.9082 h 2.33007 c -0.0176,-1.90222 -0.64373,-3.37884 -1.8789,-4.42773 -1.23517,-1.06667 -2.96615,-1.59961 -5.18945,-1.59961 z m 235.85546,0 c -2.11743,0 -3.79217,0.51576 -5.02734,1.54687 -1.21752,1.01333 -1.82812,2.40015 -1.82812,4.16016 0,2.36444 1.26188,3.87542 3.78515,4.5332 l 4.79102,1.2793 c 2.36446,0.62222 3.54687,1.67092 3.54687,3.14648 0,0.40889 -0.0698,0.8005 -0.21093,1.17383 -0.12352,0.35556 -0.3542,0.72042 -0.68946,1.09375 -0.31761,0.37333 -0.81965,0.67514 -1.50781,0.90625 -0.68817,0.23111 -1.52553,0.34766 -2.51367,0.34766 -1.04107,0 -1.94243,-0.13373 -2.70117,-0.40039 -0.7411,-0.28445 -1.30517,-0.65888 -1.69336,-1.1211 -0.37055,-0.46222 -0.64386,-0.93211 -0.82032,-1.41211 -0.1588,-0.48 -0.23828,-0.99577 -0.23828,-1.54687 v -0.13281 h -2.33008 c 0.0177,1.06667 0.1863,2.0084 0.50391,2.82617 0.33526,0.81778 0.75007,1.47487 1.24414,1.97265 0.49406,0.48 1.08527,0.88118 1.77344,1.20118 0.68816,0.30222 1.35885,0.5066 2.01172,0.61328 0.67052,0.12444 1.36639,0.18554 2.08984,0.18554 1.14695,0 2.17041,-0.13372 3.07031,-0.40039 0.91756,-0.26666 1.65026,-0.60283 2.19727,-1.01171 0.547,-0.4089 0.99671,-0.88073 1.34961,-1.41407 0.3529,-0.55111 0.59132,-1.07644 0.71484,-1.57422 0.14116,-0.51556 0.21094,-1.03132 0.21094,-1.54687 0,-1.19111 -0.36053,-2.21308 -1.08398,-3.06641 -0.70582,-0.85333 -1.71184,-1.45694 -3.01758,-1.8125 l -4.84375,-1.30664 c -1.16459,-0.32 -1.98452,-0.69443 -2.46094,-1.12109 -0.47643,-0.42667 -0.71484,-1.0131 -0.71484,-1.75977 0,-0.97778 0.38766,-1.7686 1.16406,-2.37304 0.79403,-0.60444 1.84464,-0.90625 3.15039,-0.90625 1.53514,0 2.71755,0.34573 3.54687,1.03906 0.82932,0.67555 1.25187,1.64598 1.26954,2.9082 h 2.33007 c -0.0176,-1.90222 -0.64569,-3.37884 -1.88086,-4.42773 -1.23516,-1.06667 -2.9642,-1.59961 -5.1875,-1.59961 z M 8.3751423,218.15662 1.4942829,237.59607 h 2.6210937 l 2.0371094,-5.83984 h 7.4375 l 1.984375,5.83984 h 2.753906 l -6.775391,-19.43945 z m 106.8789077,0 v 19.43945 h 2.48633 v -19.43945 z m 15.80078,0 -6.88281,19.43945 h 2.6211 l 2.03906,-5.83984 h 7.4375 l 1.98437,5.83984 h 2.75196 l -6.77539,-19.43945 z m 14.95508,0 v 2.18555 h 6.35156 v 17.2539 h 2.46094 v -17.2539 h 6.32617 v -2.18555 z m 22.39063,0 v 19.43945 h 2.48828 v -19.43945 z m 35.20312,0 v 19.43945 h 2.32813 v -15.75976 l 9.97851,15.75976 h 2.7793 v -19.43945 h -2.32813 v 15.89258 l -10.08593,-15.89258 z m 33.56055,0 v 19.43945 h 7.4375 c 2.43504,0 4.35016,-0.86149 5.74414,-2.58593 1.41162,-1.74223 2.11719,-4.12427 2.11719,-7.14649 0,-3.02222 -0.69782,-5.39665 -2.0918,-7.12109 -1.39398,-1.72445 -3.31684,-2.58594 -5.76953,-2.58594 z m 22.28711,0 v 19.43945 h 13.8418 v -2.18554 h -11.38086 v -6.66797 h 10.50781 v -2.18555 h -10.50781 v -6.21484 h 10.90429 v -2.18555 z m 52.45898,0 v 19.43945 h 13.8418 v -2.18554 h -11.38086 v -6.66797 h 10.50781 v -2.18555 h -10.50781 v -6.21484 h 10.9043 v -2.18555 z m 19.24219,0 v 2.18555 h 6.35156 v 17.2539 h 2.46094 v -17.2539 h 6.32617 v -2.18555 z m 21.86133,0 v 13.65234 c 0,1.97334 0.65323,3.53781 1.95898,4.69336 1.3234,1.13778 3.1319,1.70703 5.42578,1.70703 2.2586,0 4.05935,-0.57687 5.40039,-1.73242 1.35869,-1.15556 2.03711,-2.71241 2.03711,-4.66797 v -13.65234 h -2.46093 v 13.65234 c 0,1.31556 -0.44196,2.34709 -1.32422,3.09375 -0.88227,0.74667 -2.09956,1.1211 -3.65235,1.1211 -1.49984,0 -2.6997,-0.34769 -3.59961,-1.04102 -0.88225,-0.71111 -1.32226,-1.76938 -1.32226,-3.17383 v -13.65234 z m 22.86914,0 v 19.43945 h 7.4375 c 2.43505,0 4.35016,-0.86149 5.74414,-2.58593 1.41162,-1.74223 2.11719,-4.12427 2.11719,-7.14649 0,-3.02222 -0.69782,-5.39665 -2.0918,-7.12109 -1.39398,-1.72445 -3.31684,-2.58594 -5.76953,-2.58594 z m 22.81445,0 v 19.43945 h 2.48828 v -19.43945 z m 15.80274,0 -6.88282,19.43945 h 2.6211 l 2.03711,-5.83984 h 7.4375 l 1.98633,5.83984 h 2.75195 l -6.77539,-19.43945 z m 16.27734,0 v 19.43945 h 2.32813 v -15.75976 l 9.97851,15.75976 h 2.7793 v -19.43945 h -2.32813 v 15.89258 l -10.08593,-15.89258 z m 21.80859,0 v 2.18555 h 6.35352 v 17.2539 h 2.46094 v -17.2539 h 6.32617 v -2.18555 z m 32.29102,0 v 19.43945 h 13.84375 v -2.18554 h -11.38281 v -6.66797 h 10.50781 v -2.18555 h -10.50781 v -6.21484 h 10.90625 v -2.18555 z m 62.88867,0 v 19.43945 h 13.8418 v -2.18554 h -11.38086 v -6.66797 h 10.50781 v -2.18555 h -10.50781 v -6.21484 h 10.9043 v -2.18555 z m 20.56446,0 v 19.43945 h 2.33007 v -15.75976 l 9.97852,15.75976 h 2.7793 v -19.43945 h -2.33008 v 15.89258 l -10.08399,-15.89258 z m -492.513682,1.86719 c 2.082141,0 3.749139,0.73733 5.001953,2.21289 1.252814,1.47555 1.878906,3.43924 1.878906,5.89258 0,2.34666 -0.633837,4.24925 -1.904296,5.70703 -1.252814,1.45778 -2.904321,2.1875 -4.951172,2.1875 -2.046851,0 -3.704151,-0.72972 -4.97461,-2.1875 -1.252813,-1.47555 -1.880859,-3.4125 -1.880859,-5.8125 0,-2.4 0.628046,-4.32933 1.880859,-5.78711 1.252814,-1.47556 2.902368,-2.21289 4.949219,-2.21289 z m 111.455082,0 c 2.08214,0 3.7511,0.73733 5.00391,2.21289 1.25281,1.47555 1.8789,3.43924 1.8789,5.89258 0,2.34666 -0.63579,4.24925 -1.90625,5.70703 -1.25281,1.45778 -2.90236,2.1875 -4.94922,2.1875 -2.04684,0 -3.70609,-0.72972 -4.97656,-2.1875 -1.25281,-1.47555 -1.8789,-3.4125 -1.8789,-5.8125 0,-2.4 0.62609,-4.32933 1.8789,-5.78711 1.25282,-1.47556 2.90237,-2.21289 4.94922,-2.21289 z m 52.35352,0.31836 h 4.55273 c 1.90569,0 3.35367,0.63991 4.3418,1.91992 0.98814,1.28 1.48242,3.15584 1.48242,5.62695 0,2.45333 -0.49428,4.31961 -1.48242,5.59961 -0.98813,1.28 -2.43611,1.92188 -4.3418,1.92188 h -4.55273 z m 138.71875,0 h 4.55273 c 1.90569,0 3.35171,0.63991 4.33984,1.91992 0.98814,1.28 1.48243,3.15584 1.48243,5.62695 0,2.45333 -0.49429,4.31961 -1.48243,5.59961 -0.98813,1.28 -2.43415,1.92188 -4.33984,1.92188 h -4.55273 z m -368.4062577,0.48047 2.9648437,8.85351 H 6.761861 Z m 122.6777377,0 2.96485,8.85351 h -6.14063 z m 283.44531,0 2.96485,8.85351 h -6.14063 z m 58.57422,7.94726 v 2.77344 h 2.75196 v -2.77344 z m 30.99414,0 v 2.77344 h 2.75196 v -2.77344 z m -187.63086,21.65235 a 7.69,7.69 0 0 0 -4.1914,1.14062 7.23,7.23 0 0 0 -2.7793,3.20898 11.42,11.42 0 0 0 -1,4.83985 v 0.93945 a 10,10 0 0 0 2.12891,6.83008 7.4,7.4 0 0 0 5.85156,2.41992 9.19,9.19 0 0 0 4,-0.83008 6.35,6.35 0 0 0 2.71875,-2.33008 6.89,6.89 0 0 0 1.07031,-3.47851 l -4.46875,-0.0312 a 3.15,3.15 0 0 1 -0.88086,2.33984 3.45,3.45 0 0 1 -2.40039,0.74024 2.79,2.79 0 0 1 -2.60937,-1.28906 9.12,9.12 0 0 1 -0.75,-4.31055 v -1.33985 a 8.07,8.07 0 0 1 0.83008,-4 2.71,2.71 0 0 1 2.48046,-1.26953 3.6,3.6 0 0 1 2.48828,0.75 3.45,3.45 0 0 1 0.8711,2.48047 h 4.51953 a 7.07,7.07 0 0 0 -2.35937,-5 8.16,8.16 0 0 0 -5.51954,-1.81054 z m 157.89844,0 a 7.72,7.72 0 0 0 -4.18945,1.14062 7.23,7.23 0 0 0 -2.7793,3.20898 11.42,11.42 0 0 0 -1,4.83985 v 0.93945 a 10,10 0 0 0 2.12891,6.83008 7.4,7.4 0 0 0 5.84961,2.41992 9.16,9.16 0 0 0 4,-0.83008 6.44,6.44 0 0 0 2.73047,-2.33008 7,7 0 0 0 1.06054,-3.47851 l -4.4707,-0.0312 a 3.15,3.15 0 0 1 -0.87891,2.33984 3.45,3.45 0 0 1 -2.40039,0.74024 2.76,2.76 0 0 1 -2.59961,-1.28906 9,9 0 0 1 -0.75976,-4.31055 v -1.33985 a 8.18,8.18 0 0 1 0.83008,-4 2.71,2.71 0 0 1 2.47851,-1.26953 3.58,3.58 0 0 1 2.49024,0.75 3.45,3.45 0 0 1 0.87109,2.48047 h 4.5293 a 7.12,7.12 0 0 0 -2.36914,-5 8.16,8.16 0 0 0 -5.52149,-1.81054 z m -284.88672,0.0195 a 8.63,8.63 0 0 0 -3.65234,1.12109 7.53,7.53 0 0 0 -2.89063,3.25977 11.13,11.13 0 0 0 -1,4.88867 v 1 a 10.63,10.63 0 0 0 1.08008,4.75976 7.55,7.55 0 0 0 2.90039,3.19141 8.22,8.22 0 0 0 4.2793,1.10937 7.28,7.28 0 0 0 1.14062,-0.0801 l 4.05079,3.26953 2.76953,-2.35938 -3,-2.40039 a 8.05,8.05 0 0 0 2.39062,-3.1289 11.11,11.11 0 0 0 0.86914,-4.56055 l -0.0195,-0.89063 a 10.78,10.78 0 0 0 -1.06055,-4.82031 7.67,7.67 0 0 0 -2.91992,-3.23828 8.63,8.63 0 0 0 -4.9375,-1.12109 z m -127.308596,0.0293 a 8.63,8.63 0 0 0 -3.654297,1.1211 7.56,7.56 0 0 0 -2.919922,3.26953 11.26,11.26 0 0 0 -1,4.88086 v 1.05859 a 10.8,10.8 0 0 0 1.089844,4.73047 7.52,7.52 0 0 0 2.910156,3.16992 8.25,8.25 0 0 0 4.269531,1.09961 8.14,8.14 0 0 0 4.291016,-1.13867 7.73,7.73 0 0 0 2.910156,-3.27149 11.18,11.18 0 0 0 1,-4.8789 l 0.0098,-0.85938 a 10.78,10.78 0 0 0 -1.060547,-4.82031 7.64,7.64 0 0 0 -2.910156,-3.24023 8.63,8.63 0 0 0 -4.935547,-1.1211 z m 275.750006,0 a 8.63,8.63 0 0 0 -3.6543,1.1211 7.47,7.47 0 0 0 -2.91015,3.26953 11.12,11.12 0 0 0 -1,4.88086 v 1.05859 a 10.8,10.8 0 0 0 1.08984,4.73047 7.64,7.64 0 0 0 2.91016,3.16992 8.28,8.28 0 0 0 4.26953,1.09961 8.09,8.09 0 0 0 4.29101,-1.13867 7.6,7.6 0 0 0 2.91016,-3.27149 11.18,11.18 0 0 0 1,-4.8789 l -0.0508,-0.85938 a 10.92,10.92 0 0 0 -1,-4.82031 7.73,7.73 0 0 0 -2.91992,-3.24023 8.63,8.63 0 0 0 -4.93555,-1.1211 z m 212.69922,0 a 8.63,8.63 0 0 0 -3.65235,1.1211 7.56,7.56 0 0 0 -2.91992,3.26953 11.26,11.26 0 0 0 -1,4.88086 v 1.05859 a 10.8,10.8 0 0 0 1.08985,4.73047 7.58,7.58 0 0 0 2.91015,3.16992 8.25,8.25 0 0 0 4.26953,1.09961 8.14,8.14 0 0 0 4.28907,-1.13867 7.6,7.6 0 0 0 2.91015,-3.27149 11.18,11.18 0 0 0 1,-4.8789 l 0.01,-0.85938 a 10.78,10.78 0 0 0 -1.0586,-4.82031 7.64,7.64 0 0 0 -2.91015,-3.24023 8.63,8.63 0 0 0 -4.9375,-1.1211 z M 2.3165485,250.70154 v 18.83985 h 4.53125 v -18.83985 z m 12.1914055,0 v 18.83985 h 4.539063 v -11.71875 l 6.679687,11.71875 h 4.521485 v -18.83985 h -4.53125 v 11.72071 l -6.669922,-11.72071 z m 23.119141,0 v 18.83985 h 4.550781 v -7.50977 h 7.320313 v -3.49023 h -7.320313 v -4.33985 h 8.058594 v -3.5 z m 41.820312,0 v 18.83985 h 4.539063 v -6.66016 h 2.460937 l 3.34961,6.66016 h 4.849609 v -0.18946 l -3.939453,-7.60937 a 5.64,5.64 0 0 0 2.490234,-2.10157 6.1,6.1 0 0 0 0.800782,-3.25976 5,5 0 0 0 -1.890625,-4.19922 8.29,8.29 0 0 0 -5.240235,-1.48047 z m 21.830083,0 v 18.83008 h 4.53906 v -4.40039 l -0.43945,-9 4.57031,13.41992 h 3 l 4.55078,-13.41016 -0.4414,9 v 4.4004 h 4.56054 v -18.83985 h -6 l -4.19921,13.11133 -4.20118,-13.11133 z m 33.42969,0 -6.91016,18.83985 h 4.82031 l 1.08008,-3.51954 h 6.23047 l 1.17969,3.51954 h 4.8789 l -7,-18.83985 z m 14.54101,0 v 3.5 h 5.54883 v 15.33985 h 4.58008 v -15.33985 h 5.65039 l -0.0293,-3.5 z m 22.54883,0 v 18.83985 h 4.49024 l 0.041,-18.83985 z m 34.92969,0 v 12.38086 a 6.38,6.38 0 0 0 2,4.90039 7.8,7.8 0 0 0 5.41992,1.7793 9.13,9.13 0 0 0 3.95117,-0.80078 5.76,5.76 0 0 0 2.5586,-2.29883 7,7 0 0 0 0.90039,-3.63086 v -12.33008 h -4.5293 v 12.31055 a 3.65,3.65 0 0 1 -0.7207,2.51953 2.8,2.8 0 0 1 -2.13867,0.78125 c -1.87,0 -2.8711,-1.04156 -2.8711,-3.10156 v -12.50977 z m 22.15039,0 v 18.83985 h 13 v -3.49024 h -8.43945 v -4.50976 h 7.15039 l -0.0312,-3.33985 h -7.15039 v -4 h 8.4707 v -3.5 z m 30.45117,0 v 18.83985 h 13 v -3.49024 h -8.4414 v -4.50976 h 7.15039 l -0.0293,-3.33985 h -7.15039 v -4 h 8.4707 v -3.5 z m 18.6582,0 v 3.5 h 5.55079 v 15.33985 h 4.55078 v -15.33985 h 5.64843 v -3.5 z m 77.23047,0 v 18.83008 h 4.54102 v -4.40039 l -0.44141,-9 4.57032,13.41992 h 3 l 4.55078,-13.41016 -0.43946,9 v 4.4004 h 4.58008 v -18.83985 h -6 l -4.1914,13.11133 -4.20899,-13.11133 z m 27.78125,0 v 18.83008 h 4.54883 v -4.40039 l -0.43945,-9 4.57031,13.41992 h 3 l 4.55859,-13.41016 -0.43945,9 v 4.4004 h 4.51953 v -18.83985 h -6 l -4.18945,13.11133 -4.20898,-13.11133 z m 27.64844,0 v 12.41992 a 6.42,6.42 0 0 0 2,4.90039 7.81,7.81 0 0 0 5.43164,1.7793 9.08,9.08 0 0 0 3.93946,-0.79883 5.79,5.79 0 0 0 2.57031,-2.33984 7.13,7.13 0 0 0 0.88867,-3.63086 v -12.33008 h -4.51953 v 12.31055 a 3.65,3.65 0 0 1 -0.73047,2.51953 2.76,2.76 0 0 1 -2.12891,0.78125 c -1.87999,0 -2.83086,-1.04156 -2.88086,-3.10156 v -12.50977 z m 22.15039,0 v 18.83985 h 4.56055 v -11.71875 l 6.67969,11.71875 h 4.51953 l -0.0195,-18.83985 h -4.5293 v 11.72071 l -6.66992,-11.72071 z m 23.47071,0 v 18.83985 h 4.52929 v -18.83985 z m 39.52929,0 -6.93945,18.83985 h 4.84961 l 1.08984,-3.51954 h 6.25977 l 1.14062,3.51954 h 4.88086 l -7,-18.83985 z m 14.60938,0 v 3.5 h 5.55078 v 15.33985 h 4.54101 v -15.33985 h 5.65821 v -3.5 z m 22.48047,0 v 18.83985 h 4.53125 v -18.83985 z m 35.00976,0 v 18.83985 h 4.54102 v -11.71875 l 6.67968,11.71875 h 4.51954 v -18.83985 h -4.5293 v 11.72071 l -6.66992,-11.72071 z m -376.19922,3.25977 a 3,3 0 0 1 2.68946,1.49023 8,8 0 0 1 0.92968,4.26953 v 0.82032 a 8,8 0 0 1 -0.92968,4.21093 3,3 0 0 1 -2.66016,1.46875 3,3 0 0 1 -2.72852,-1.48828 8.07,8.07 0 0 1 -0.91992,-4.26172 v -0.86914 a 8,8 0 0 1 0.91992,-4.21094 3,3 0 0 1 2.69922,-1.42968 z m 361.09961,0 a 3,3 0 0 1 2.68945,1.49023 7.91,7.91 0 0 1 0.94141,4.26953 l 0.0195,0.86133 a 8,8 0 0 1 -1,4.20899 3,3 0 0 1 -2.65039,1.4707 3,3 0 0 1 -2.68945,-1.5293 8.19,8.19 0 0 1 -0.91992,-4.26172 v -1.38867 c 0.13,-3.41 1.33937,-5.12109 3.60937,-5.12109 z m -488.449222,0.041 a 3,3 0 0 1 2.689453,1.44922 7.91,7.91 0 0 1 0.939453,4.26953 l 0.0098,0.86133 a 8,8 0 0 1 -0.949219,4.20899 3,3 0 0 1 -2.65039,1.4707 3,3 0 0 1 -2.730469,-1.49024 8.1,8.1 0 0 1 -0.919922,-4.25976 v -1.39063 c 0.126667,-3.41333 1.33133,-5.11914 3.611328,-5.11914 z m 275.769532,0 a 3,3 0 0 1 2.67969,1.44922 7.91,7.91 0 0 1 0.93945,4.26953 l 0.0605,0.86133 a 7.86,7.86 0 0 1 -1,4.20899 3,3 0 0 1 -2.65039,1.4707 3,3 0 0 1 -2.72851,-1.49024 8.19,8.19 0 0 1 -0.91993,-4.25976 v -1.39063 c 0.13334,-3.41333 1.33915,-5.11914 3.61914,-5.11914 z m -256.119141,0.18946 h 2.878906 a 2.53,2.53 0 0 1 1.939453,0.69921 3.1,3.1 0 0 1 0,3.81055 2.61,2.61 0 0 1 -1.949219,0.67969 H 83.98647 Z m 52.798831,1.76953 2,6.55078 h -4 z m 361.1211,0.0215 2,6.5293 h -4 z" />
</svg>
