<svg width="100" height="100" viewBox="0 0 40.664 40.94" xmlns="http://www.w3.org/2000/svg"><path d="M0 0v40.94c2.934-.721 6.763-1.897 12.224-3.36 22.528-6.036 18.95-2.46 24.987-24.987C38.734 6.91 39.953 2.977 40.664 0z" fill="#f9f9f9" fill-opacity=".999" paint-order="stroke fill markers"/><g fill="#c7371b"><path class="prefix__cls-1" d="M21.642 12.535a.427.427 0 00-.28.036l-11.244 5.717a.422.422 0 00-.224.45.4.4 0 00.04.117.425.425 0 00.326.227l4.197.496a35.477 35.477 0 01-4.888 5.165 1.63 1.63 0 102.085 2.505 37.93 37.93 0 005.341-5.63l1.623 3.191a.42.42 0 00.785-.099l2.544-11.676a.42.42 0 00-.305-.499zM27.954 8.283a.509.509 0 00-.712-.137l-2.543 1.719a.513.513 0 00.572.852l2.558-1.72a.509.509 0 00.125-.714zM19.693 8.888l-1.719-2.543a.514.514 0 00-.854.572l1.721 2.559a.514.514 0 10.852-.575zM26.003 18.265l-1.721-2.556a.513.513 0 00-.852.573l1.721 2.558a.514.514 0 00.852-.575zM22.855 8.652l.59-3.027a.518.518 0 10-1.018-.196l-.58 3.037a.509.509 0 00.077.387.509.509 0 00.328.216.509.509 0 00.603-.417zM18.033 11.897a.509.509 0 00-.407-.603l-3.024-.592a.518.518 0 00-.199 1.017l3.027.592a.509.509 0 00.603-.414zM29.134 14.061a.509.509 0 00-.407-.603l-3.024-.592a.518.518 0 00-.196 1.017l3.024.593a.509.509 0 00.603-.415z"/></g></svg>