<?xml version="1.0" encoding="UTF-8" standalone="no"?>
<!-- Created with Inkscape (http://www.inkscape.org/) -->

<svg
  width="100"
  height="100"
  viewBox="0 0 40.664185 40.940141"
  version="1.1"
  id="svg1"
  xml:space="preserve"
  xmlns="http://www.w3.org/2000/svg"
  xmlns:svg="http://www.w3.org/2000/svg"><g
     id="layer1"><path
       id="path1551"
       style="opacity:1;fill:#f9f9f9;fill-opacity:0.999428;stroke:none;stroke-width:3.4;stroke-linecap:square;stroke-linejoin:round;paint-order:stroke fill markers"
       d="m 265.4724,-201.51024 50.23786,-13.4612 c -1.8501,-3.36314 -4.55146,-7.67546 -8.1422,-13.8948 -14.81458,-25.6596 -9.24926,-22.44646 -38.87842,-22.44646 -7.47424,0 -12.70057,-0.20289 -16.5877,-0.0968 z"
       transform="matrix(-0.20373148,0.76033625,-0.76033625,-0.20373148,-99.130456,-242.90227)" /><g
       id="g15"
       transform="matrix(0.25433006,0,0,0.25433006,-110.49827,104.74079)"
       style="fill:#c7371b;fill-opacity:1"><path
         class="cls-1"
         d="m 519.56055,-362.5428 a 1.68,1.68 0 0 0 -1.1,0.14 l -44.21,22.48 a 1.66,1.66 0 0 0 -0.88,1.77 1.57,1.57 0 0 0 0.16,0.46 1.67,1.67 0 0 0 1.28,0.89 l 16.5,1.95 a 139.49,139.49 0 0 1 -19.22,20.31 6.41,6.41 0 1 0 8.2,9.85 149.14,149.14 0 0 0 21,-22.14 l 6.38,12.55 a 1.65,1.65 0 0 0 3.09,-0.39 l 10,-45.91 a 1.65,1.65 0 0 0 -1.2,-1.96 z"
         id="path2"
         style="fill:#c7371b;fill-opacity:1" /><path
         class="cls-1"
         d="m 544.38055,-379.2628 a 2,2 0 0 0 -2.8,-0.54 l -10,6.76 a 2.0177339,2.0177339 0 0 0 2.25,3.35 l 10.06,-6.76 a 2,2 0 0 0 0.49,-2.81 z"
         id="path3"
         style="fill:#c7371b;fill-opacity:1" /><path
         class="cls-1"
         d="m 511.90055,-376.8828 -6.76,-10 a 2.0218865,2.0218865 0 0 0 -3.36,2.25 l 6.77,10.06 a 2.0205259,2.0205259 0 1 0 3.35,-2.26 z"
         id="path7"
         style="fill:#c7371b;fill-opacity:1" /><path
         class="cls-1"
         d="m 536.71055,-340.0128 -6.77,-10.05 a 2.0177339,2.0177339 0 0 0 -3.35,2.25 l 6.77,10.06 a 2.0205259,2.0205259 0 0 0 3.35,-2.26 z"
         id="path9"
         style="fill:#c7371b;fill-opacity:1" /><path
         class="cls-1"
         d="m 524.33055,-377.8128 2.32,-11.9 a 2.0367192,2.0367192 0 1 0 -4,-0.77 l -2.28,11.94 a 2,2 0 0 0 0.3,1.52 2,2 0 0 0 1.29,0.85 2,2 0 0 0 2.37,-1.64 z"
         id="path11"
         style="fill:#c7371b;fill-opacity:1" /><path
         class="cls-1"
         d="m 505.37055,-365.0528 a 2,2 0 0 0 -1.6,-2.37 l -11.89,-2.33 a 2.0376702,2.0376702 0 0 0 -0.78,4 l 11.9,2.33 a 2,2 0 0 0 2.37,-1.63 z"
         id="path13"
         style="fill:#c7371b;fill-opacity:1" /><path
         class="cls-1"
         d="m 549.02055,-356.5428 a 2,2 0 0 0 -1.6,-2.37 l -11.89,-2.33 a 2.0367192,2.0367192 0 0 0 -0.77,4 l 11.89,2.33 a 2,2 0 0 0 2.37,-1.63 z"
         id="path15"
         style="fill:#c7371b;fill-opacity:1" /></g></g></svg>