<svg width="1920" height="320" viewBox="0 0 508 84.667" xmlns="http://www.w3.org/2000/svg"><defs><filter id="prefix__a" x="-.01" y="-.068" width="1.02" height="1.136" color-interpolation-filters="sRGB"><feGaussianBlur stdDeviation="2.132"/></filter></defs><g paint-order="stroke fill markers"><path style="mix-blend-mode:darken" d="M1.587 64.09v19.657l15.873-9.164 15.875 9.166v18.331l15.875 9.166 15.876-9.166 15.875 9.166 15.875-9.166V83.75l15.876-9.166 15.875 9.166 15.875-9.166 15.876 9.166v18.331l15.875 9.166 15.832-9.14-.044-.026V83.75l15.876-9.167 15.875 9.166v9.884h.088v8.447l-15.876 9.166v18.331l15.876 9.166 15.875-9.166v-18.33l15.875-9.167 15.876 9.166 15.875-9.166 15.875 9.166 15.876-9.166V83.75l15.875-9.166 15.876 9.166v18.331l15.875 9.166 15.875-9.166V83.75l16.05-9.166 15.696 9.062v.102l15.872-9.164 15.875 9.166v18.331l15.875 9.166 15.876-9.166 15.875 9.166 15.876-9.166V64.09h-95.25zm135.176 28.926l-15.875 9.166v18.33l15.875 9.167 15.876-9.166v-18.331zm-113.665 9.462l-15.875 9.166v18.331l15.875 9.166 15.876-9.166v-18.331z" opacity=".188" filter="url(#prefix__a)" transform="translate(0 -59.253)"/><path d="M21.51 38.388L5.637 47.554v18.331l15.875 9.166 15.875-9.166V47.554zM135.176 28.926L119.3 38.092v18.33l15.876 9.167 15.875-9.166V38.092z" fill="#fafafa"/><path d="M0 0v19.657l15.872-9.164 15.875 9.166V37.99l15.876 9.166 15.875-9.166 15.875 9.166L95.25 37.99V19.66l15.875-9.166L127 19.66l15.875-9.166 15.875 9.166V37.99l15.876 9.166 15.831-9.14-.043-.026V19.66l15.875-9.167 15.875 9.166v9.884h.088v8.447l-15.876 9.166v18.331l15.876 9.166 15.875-9.166v-18.33l15.876-9.167 15.875 9.166 15.876-9.166 15.875 9.166 15.875-9.166V19.66l15.876-9.166 15.875 9.166V37.99l15.875 9.166 15.876-9.166V19.66l16.05-9.166 15.695 9.062v.102l15.872-9.164 15.875 9.166V37.99l15.876 9.166 15.875-9.166 15.876 9.166L508 37.99V0h-95.249z" fill="#fafafa"/></g></svg>