<?xml version="1.0" encoding="UTF-8" standalone="no"?>
<svg
   id="Layer_1"
   data-name="Layer 1"
   viewBox="0 0 611.86737 272.96155"
   version="1.1"
   sodipodi:docname="clic_color_info.svg"
   width="611.86737"
   height="272.96155"
   inkscape:version="1.2.2 (732a01da63, 2022-12-09, custom)"
   inkscape:export-filename="../b62788a1/clic_logo.png"
   inkscape:export-xdpi="195.183"
   inkscape:export-ydpi="195.183"
   xmlns:inkscape="http://www.inkscape.org/namespaces/inkscape"
   xmlns:sodipodi="http://sodipodi.sourceforge.net/DTD/sodipodi-0.dtd"
   xmlns="http://www.w3.org/2000/svg"
   xmlns:svg="http://www.w3.org/2000/svg"
   xmlns:rdf="http://www.w3.org/1999/02/22-rdf-syntax-ns#"
   xmlns:cc="http://creativecommons.org/ns#"
   xmlns:dc="http://purl.org/dc/elements/1.1/">
  <metadata
     id="metadata137">
    <rdf:RDF>
      <cc:Work
         rdf:about="">
        <dc:format>image/svg+xml</dc:format>
        <dc:type
           rdf:resource="http://purl.org/dc/dcmitype/StillImage" />
        <dc:title>clic_color_info</dc:title>
      </cc:Work>
    </rdf:RDF>
  </metadata>
  <sodipodi:namedview
     pagecolor="#ffffff"
     bordercolor="#666666"
     borderopacity="1"
     objecttolerance="10"
     gridtolerance="10"
     guidetolerance="10"
     inkscape:pageopacity="0"
     inkscape:pageshadow="2"
     inkscape:window-width="1846"
     inkscape:window-height="1016"
     id="namedview135"
     showgrid="false"
     inkscape:zoom="1.3782281"
     inkscape:cx="322.51556"
     inkscape:cy="257.93989"
     inkscape:window-x="74"
     inkscape:window-y="27"
     inkscape:window-maximized="1"
     inkscape:current-layer="text581"
     inkscape:showpageshadow="2"
     inkscape:pagecheckerboard="0"
     inkscape:deskcolor="#d1d1d1" />
  <defs
     id="defs4">
    <rect
       x="0"
       y="297.12428"
       width="611.86737"
       height="69.13105"
       id="rect583" />
    <style
       id="style2">.cls-1{fill:#c7371b;}.cls-2{fill:#273184;}</style>
  </defs>
  <title
     id="title6">clic_color_info</title>
  <path
     class="cls-1"
     d="m 6.8764485,269.54156 h -4.53 v -18.84 h 4.53 z"
     id="path8"
     inkscape:connector-curvature="0"
     style="fill:#c7371b" />
  <path
     class="cls-1"
     d="m 30.276448,269.54156 h -4.52 l -6.68,-11.72 v 11.72 h -4.54 v -18.84 h 4.54 l 6.67,11.72 v -11.72 h 4.53 z"
     id="path10"
     inkscape:connector-curvature="0"
     style="fill:#c7371b" />
  <path
     class="cls-1"
     d="m 49.526448,262.03156 h -7.32 v 7.51 h -4.55 v -18.84 h 12.61 v 3.5 h -8.06 v 4.34 h 7.32 z"
     id="path12"
     inkscape:connector-curvature="0"
     style="fill:#c7371b" />
  <path
     class="cls-1"
     d="m 72.626448,260.51156 a 11.18,11.18 0 0 1 -1,4.88 7.73,7.73 0 0 1 -2.91,3.27 8.14,8.14 0 0 1 -4.29,1.14 8.25,8.25 0 0 1 -4.27,-1.1 7.52,7.52 0 0 1 -2.91,-3.17 10.8,10.8 0 0 1 -1.09,-4.73 v -1.06 a 11.26,11.26 0 0 1 1,-4.88 7.56,7.56 0 0 1 2.92,-3.27 8.63,8.63 0 0 1 8.59,0 7.64,7.64 0 0 1 2.91,3.24 10.78,10.78 0 0 1 1.06,4.82 z m -4.62,-0.79 a 7.91,7.91 0 0 0 -0.94,-4.27 3,3 0 0 0 -2.69,-1.45 q -3.42,0 -3.61,5.12 v 1.39 a 8.1,8.1 0 0 0 0.92,4.26 3,3 0 0 0 2.73,1.49 3,3 0 0 0 2.65,-1.47 8,8 0 0 0 0.95,-4.21 z"
     id="path14"
     inkscape:connector-curvature="0"
     style="fill:#c7371b" />
  <path
     class="cls-1"
     d="m 86.476448,262.88156 h -2.46 v 6.66 h -4.54 v -18.84 h 7.42 a 8.29,8.29 0 0 1 5.24,1.48 5,5 0 0 1 1.89,4.2 6.1,6.1 0 0 1 -0.8,3.26 5.64,5.64 0 0 1 -2.49,2.1 l 3.94,7.61 v 0.19 h -4.85 z m -2.46,-3.5 h 2.88 a 2.61,2.61 0 0 0 1.95,-0.68 3.1,3.1 0 0 0 0,-3.81 2.53,2.53 0 0 0 -1.94,-0.7 h -2.88 z"
     id="path16"
     inkscape:connector-curvature="0"
     style="fill:#c7371b" />
  <path
     class="cls-1"
     d="m 107.24645,250.70156 4.2,13.11 4.2,-13.11 h 6 v 18.84 h -4.56 v -4.4 l 0.44,-9 -4.55,13.41 h -3 l -4.57,-13.42 0.44,9 v 4.4 h -4.54 v -18.83 z"
     id="path18"
     inkscape:connector-curvature="0"
     style="fill:#c7371b" />
  <path
     class="cls-1"
     d="m 139.95645,266.02156 h -6.23 l -1.08,3.52 h -4.82 l 6.91,-18.84 h 4.28 l 7,18.84 h -4.88 z m -5.13,-3.51 h 4 l -2,-6.55 z"
     id="path20"
     inkscape:connector-curvature="0"
     style="fill:#c7371b" />
  <path
     class="cls-1"
     d="m 165.05645,254.20156 h -5.65 v 15.34 h -4.58 v -15.34 h -5.55 v -3.5 h 15.75 z"
     id="path22"
     inkscape:connector-curvature="0"
     style="fill:#c7371b" />
  <path
     class="cls-1"
     d="m 176.31645,269.54156 h -4.49 v -18.84 h 4.53 z"
     id="path24"
     inkscape:connector-curvature="0"
     style="fill:#c7371b" />
  <path
     class="cls-1"
     d="m 199.97645,260.51156 a 11.11,11.11 0 0 1 -0.87,4.56 8.05,8.05 0 0 1 -2.39,3.13 l 3,2.4 -2.77,2.36 -4.05,-3.27 a 7.28,7.28 0 0 1 -1.14,0.08 8.22,8.22 0 0 1 -4.28,-1.11 7.55,7.55 0 0 1 -2.9,-3.19 10.63,10.63 0 0 1 -1.08,-4.76 v -1 a 11.13,11.13 0 0 1 1,-4.89 7.53,7.53 0 0 1 2.89,-3.26 8.63,8.63 0 0 1 8.59,0 7.67,7.67 0 0 1 2.92,3.24 10.78,10.78 0 0 1 1.06,4.82 z m -4.63,-0.79 a 8,8 0 0 0 -0.93,-4.27 3,3 0 0 0 -2.69,-1.49 3,3 0 0 0 -2.7,1.43 8,8 0 0 0 -0.92,4.21 v 0.87 a 8.07,8.07 0 0 0 0.92,4.26 3,3 0 0 0 2.73,1.49 3,3 0 0 0 2.66,-1.47 8,8 0 0 0 0.93,-4.21 z"
     id="path26"
     inkscape:connector-curvature="0"
     style="fill:#c7371b" />
  <path
     class="cls-1"
     d="m 221.58645,250.70156 v 12.33 a 7,7 0 0 1 -0.9,3.63 5.76,5.76 0 0 1 -2.56,2.3 9.13,9.13 0 0 1 -3.95,0.8 7.8,7.8 0 0 1 -5.42,-1.78 6.38,6.38 0 0 1 -2,-4.9 v -12.38 h 4.57 v 12.51 c 0,2.06 1,3.1 2.87,3.1 a 2.8,2.8 0 0 0 2.14,-0.78 3.65,3.65 0 0 0 0.72,-2.52 v -12.31 z"
     id="path28"
     inkscape:connector-curvature="0"
     style="fill:#c7371b" />
  <path
     class="cls-1"
     d="m 240.61645,261.54156 h -7.15 v 4.51 h 8.44 v 3.49 h -13 v -18.84 h 13 v 3.5 h -8.47 v 4 h 7.15 z"
     id="path30"
     inkscape:connector-curvature="0"
     style="fill:#c7371b" />
  <path
     class="cls-1"
     d="m 271.06645,261.54156 h -7.15 v 4.51 h 8.44 v 3.49 h -13 v -18.84 h 13 v 3.5 h -8.47 v 4 h 7.15 z"
     id="path32"
     inkscape:connector-curvature="0"
     style="fill:#c7371b" />
  <path
     class="cls-1"
     d="m 293.76645,254.20156 h -5.65 v 15.34 h -4.55 v -15.34 h -5.55 v -3.5 h 15.75 z"
     id="path34"
     inkscape:connector-curvature="0"
     style="fill:#c7371b" />
  <path
     class="cls-1"
     d="m 325.82645,263.16156 a 6.89,6.89 0 0 1 -1.07,3.48 6.35,6.35 0 0 1 -2.72,2.33 9.19,9.19 0 0 1 -4,0.83 7.4,7.4 0 0 1 -5.85,-2.42 10,10 0 0 1 -2.13,-6.83 v -0.94 a 11.42,11.42 0 0 1 1,-4.84 7.23,7.23 0 0 1 2.78,-3.21 7.69,7.69 0 0 1 4.19,-1.14 8.16,8.16 0 0 1 5.52,1.81 7.07,7.07 0 0 1 2.36,5 h -4.52 a 3.45,3.45 0 0 0 -0.87,-2.48 3.6,3.6 0 0 0 -2.49,-0.75 2.71,2.71 0 0 0 -2.48,1.27 8.07,8.07 0 0 0 -0.83,4 v 1.34 a 9.12,9.12 0 0 0 0.75,4.31 2.79,2.79 0 0 0 2.61,1.29 3.45,3.45 0 0 0 2.4,-0.74 3.15,3.15 0 0 0 0.88,-2.34 z"
     id="path36"
     inkscape:connector-curvature="0"
     style="fill:#c7371b" />
  <path
     class="cls-1"
     d="m 348.38645,260.51156 a 11.18,11.18 0 0 1 -1,4.88 7.6,7.6 0 0 1 -2.91,3.27 8.09,8.09 0 0 1 -4.29,1.14 8.28,8.28 0 0 1 -4.27,-1.1 7.64,7.64 0 0 1 -2.91,-3.17 10.8,10.8 0 0 1 -1.09,-4.73 v -1.06 a 11.12,11.12 0 0 1 1,-4.88 7.47,7.47 0 0 1 2.91,-3.27 8.63,8.63 0 0 1 8.59,0 7.73,7.73 0 0 1 2.92,3.24 10.92,10.92 0 0 1 1,4.82 z m -4.62,-0.79 a 7.91,7.91 0 0 0 -0.94,-4.27 3,3 0 0 0 -2.68,-1.45 q -3.42,0 -3.62,5.12 v 1.39 a 8.19,8.19 0 0 0 0.92,4.26 3,3 0 0 0 2.73,1.49 3,3 0 0 0 2.65,-1.47 7.86,7.86 0 0 0 1,-4.21 z"
     id="path38"
     inkscape:connector-curvature="0"
     style="fill:#c7371b" />
  <path
     class="cls-1"
     d="m 361.20645,250.70156 4.21,13.11 4.19,-13.11 h 6 v 18.84 h -4.58 v -4.4 l 0.44,-9 -4.55,13.41 h -3 l -4.57,-13.42 0.44,9 v 4.4 h -4.54 v -18.83 z"
     id="path40"
     inkscape:connector-curvature="0"
     style="fill:#c7371b" />
  <path
     class="cls-1"
     d="m 388.94645,250.70156 4.21,13.11 4.19,-13.11 h 6 v 18.84 h -4.52 v -4.4 l 0.44,-9 -4.56,13.41 h -3 l -4.57,-13.42 0.44,9 v 4.4 h -4.55 v -18.83 z"
     id="path42"
     inkscape:connector-curvature="0"
     style="fill:#c7371b" />
  <path
     class="cls-1"
     d="m 425.50645,250.70156 v 12.33 a 7.13,7.13 0 0 1 -0.89,3.63 5.79,5.79 0 0 1 -2.57,2.34 9.08,9.08 0 0 1 -3.94,0.8 7.81,7.81 0 0 1 -5.43,-1.78 6.42,6.42 0 0 1 -2,-4.9 v -12.42 h 4.57 v 12.51 c 0.05,2.06 1,3.1 2.88,3.1 a 2.76,2.76 0 0 0 2.13,-0.78 3.65,3.65 0 0 0 0.73,-2.52 v -12.31 z"
     id="path44"
     inkscape:connector-curvature="0"
     style="fill:#c7371b" />
  <path
     class="cls-1"
     d="m 448.58645,269.54156 h -4.52 l -6.68,-11.72 v 11.72 h -4.56 v -18.84 h 4.54 l 6.67,11.72 v -11.72 h 4.53 z"
     id="path46"
     inkscape:connector-curvature="0"
     style="fill:#c7371b" />
  <path
     class="cls-1"
     d="m 460.82645,269.54156 h -4.53 v -18.84 h 4.53 z"
     id="path48"
     inkscape:connector-curvature="0"
     style="fill:#c7371b" />
  <path
     class="cls-1"
     d="m 483.72645,263.16156 a 7,7 0 0 1 -1.06,3.48 6.44,6.44 0 0 1 -2.73,2.33 9.16,9.16 0 0 1 -4,0.83 7.4,7.4 0 0 1 -5.85,-2.42 10,10 0 0 1 -2.13,-6.83 v -0.94 a 11.42,11.42 0 0 1 1,-4.84 7.23,7.23 0 0 1 2.78,-3.21 7.72,7.72 0 0 1 4.19,-1.14 8.16,8.16 0 0 1 5.52,1.81 7.12,7.12 0 0 1 2.37,5 h -4.53 a 3.45,3.45 0 0 0 -0.87,-2.48 3.58,3.58 0 0 0 -2.49,-0.75 2.71,2.71 0 0 0 -2.48,1.27 8.18,8.18 0 0 0 -0.83,4 v 1.34 a 9,9 0 0 0 0.76,4.31 2.76,2.76 0 0 0 2.6,1.29 3.45,3.45 0 0 0 2.4,-0.74 3.15,3.15 0 0 0 0.88,-2.34 z"
     id="path50"
     inkscape:connector-curvature="0"
     style="fill:#c7371b" />
  <path
     class="cls-1"
     d="m 501.08645,266.02156 h -6.26 l -1.09,3.52 h -4.85 l 6.94,-18.84 h 4.28 l 7,18.84 h -4.88 z m -5.14,-3.51 h 4 l -2,-6.53 z"
     id="path52"
     inkscape:connector-curvature="0"
     style="fill:#c7371b" />
  <path
     class="cls-1"
     d="m 526.18645,254.20156 h -5.66 v 15.34 h -4.54 v -15.34 h -5.55 v -3.5 h 15.75 z"
     id="path54"
     inkscape:connector-curvature="0"
     style="fill:#c7371b" />
  <path
     class="cls-1"
     d="m 537.44645,269.54156 h -4.53 v -18.84 h 4.53 z"
     id="path56"
     inkscape:connector-curvature="0"
     style="fill:#c7371b" />
  <path
     class="cls-1"
     d="m 561.07645,260.51156 a 11.18,11.18 0 0 1 -1,4.88 7.6,7.6 0 0 1 -2.91,3.27 8.14,8.14 0 0 1 -4.29,1.14 8.25,8.25 0 0 1 -4.27,-1.1 7.58,7.58 0 0 1 -2.91,-3.17 10.8,10.8 0 0 1 -1.09,-4.73 v -1.06 a 11.26,11.26 0 0 1 1,-4.88 7.56,7.56 0 0 1 2.92,-3.27 8.63,8.63 0 0 1 8.59,0 7.64,7.64 0 0 1 2.91,3.24 10.78,10.78 0 0 1 1.06,4.82 z m -4.62,-0.79 a 7.91,7.91 0 0 0 -0.94,-4.27 3,3 0 0 0 -2.69,-1.49 c -2.27,0 -3.48,1.71 -3.61,5.12 v 1.39 a 8.19,8.19 0 0 0 0.92,4.26 3,3 0 0 0 2.69,1.53 3,3 0 0 0 2.65,-1.47 8,8 0 0 0 1,-4.21 z"
     id="path58"
     inkscape:connector-curvature="0"
     style="fill:#c7371b" />
  <path
     class="cls-1"
     d="m 583.66645,269.54156 h -4.52 l -6.68,-11.72 v 11.72 h -4.54 v -18.84 h 4.54 l 6.67,11.72 v -11.72 h 4.53 z"
     id="path60"
     inkscape:connector-curvature="0"
     style="fill:#c7371b" />
  <path
     class="cls-2"
     d="m 351.19645,32.79156 a 32.78,32.78 0 1 0 -41.88,31.48 v 106.69 a 9.11,9.11 0 1 0 18.21,0 v -106.69 a 32.84,32.84 0 0 0 23.67,-31.48 z m -32.78,16.22 a 16.22,16.22 0 1 1 16.22,-16.22 16.23,16.23 0 0 1 -16.22,16.22 z"
     id="path112"
     inkscape:connector-curvature="0"
     style="fill:#273184" />
  <path
     class="cls-2"
     d="m 84.716448,181.46156 a 84.74,84.74 0 1 1 56.000002,-148.36 9.193238,9.193238 0 1 1 -12.15,13.8 66.35,66.35 0 1 0 0.14,99.52 9.19,9.19 0 0 1 12.12,13.77 84.65,84.65 0 0 1 -56.110002,21.27 z"
     id="path114"
     inkscape:connector-curvature="0"
     style="fill:#273184" />
  <path
     class="cls-2"
     d="m 467.01645,181.46156 a 84.74,84.74 0 1 1 56,-148.36 9.2064665,9.2064665 0 1 1 -12.19,13.8 66.35,66.35 0 1 0 0.14,99.52 9.1919163,9.1919163 0 0 1 12.18,13.77 84.65,84.65 0 0 1 -56.13,21.27 z"
     id="path116"
     inkscape:connector-curvature="0"
     style="fill:#273184" />
  <path
     class="cls-2"
     d="m 263.15645,181.46156 c -57,0 -84.74,-27.72 -84.74,-84.74 v -74.19 a 9.2,9.2 0 1 1 18.39,0 v 74.19 c 0,47.13 19.22,66.35 66.35,66.35 a 9.2,9.2 0 0 1 0,18.39 z"
     id="path118"
     inkscape:connector-curvature="0"
     style="fill:#273184" />
  <path
     class="cls-1"
     d="m 582.36645,83.96156 a 1.68,1.68 0 0 0 -1.1,0.14 l -44.21,22.48 a 1.66,1.66 0 0 0 -0.88,1.77 1.57,1.57 0 0 0 0.16,0.46 1.67,1.67 0 0 0 1.28,0.89 l 16.5,1.95 a 139.49,139.49 0 0 1 -19.22,20.31 6.41,6.41 0 1 0 8.2,9.85 149.14,149.14 0 0 0 21,-22.14 l 6.38,12.55 a 1.65,1.65 0 0 0 3.09,-0.39 l 10,-45.91 a 1.65,1.65 0 0 0 -1.2,-1.96 z"
     id="path120"
     inkscape:connector-curvature="0"
     style="fill:#c7371b" />
  <path
     class="cls-1"
     d="m 607.18645,67.24156 a 2,2 0 0 0 -2.8,-0.54 l -10,6.76 a 2.0177339,2.0177339 0 0 0 2.25,3.35 l 10.06,-6.76 a 2,2 0 0 0 0.49,-2.81 z"
     id="path122"
     inkscape:connector-curvature="0"
     style="fill:#c7371b" />
  <path
     class="cls-1"
     d="m 574.70645,69.62156 -6.76,-10 a 2.0218865,2.0218865 0 0 0 -3.36,2.25 l 6.77,10.06 a 2.0205259,2.0205259 0 1 0 3.35,-2.26 z"
     id="path124"
     inkscape:connector-curvature="0"
     style="fill:#c7371b" />
  <path
     class="cls-1"
     d="m 599.51645,106.49156 -6.77,-10.05 a 2.0177339,2.0177339 0 0 0 -3.35,2.25 l 6.77,10.06 a 2.0205259,2.0205259 0 0 0 3.35,-2.26 z"
     id="path126"
     inkscape:connector-curvature="0"
     style="fill:#c7371b" />
  <path
     class="cls-1"
     d="m 587.13645,68.69156 2.32,-11.9 a 2.0367192,2.0367192 0 1 0 -4,-0.77 l -2.28,11.94 a 2,2 0 0 0 0.3,1.52 2,2 0 0 0 1.29,0.85 2,2 0 0 0 2.37,-1.64 z"
     id="path128"
     inkscape:connector-curvature="0"
     style="fill:#c7371b" />
  <path
     class="cls-1"
     d="m 568.17645,81.45156 a 2,2 0 0 0 -1.6,-2.37 l -11.89,-2.33 a 2.0376702,2.0376702 0 0 0 -0.78,4 l 11.9,2.33 a 2,2 0 0 0 2.37,-1.63 z"
     id="path130"
     inkscape:connector-curvature="0"
     style="fill:#c7371b" />
  <path
     class="cls-1"
     d="m 611.82645,89.96156 a 2,2 0 0 0 -1.6,-2.37 l -11.89,-2.33 a 2.0367192,2.0367192 0 0 0 -0.77,4 l 11.89,2.33 a 2,2 0 0 0 2.37,-1.63 z"
     id="path132"
     inkscape:connector-curvature="0"
     style="fill:#c7371b" />
  <g
     aria-label="ASSOCIATION DES ÉTUDIANT·E·S EN"
     transform="matrix(0.99254579,0,0,1,1.1264485,-84.195792)"
     id="text581"
     style="font-size:26.6667px;line-height:1.25;letter-spacing:3.84px;word-spacing:0px;white-space:pre;shape-inside:url(#rect583);display:inline;fill:#273184;stroke-width:1.00375">
    <path
       d="M 12.586683,315.95169 H 5.0933398 l -2.053336,5.84001 H 0.40000051 L 7.3333426,302.35167 h 3.2000044 l 6.826675,19.44003 h -2.773337 z m -0.693335,-2.08 -2.9866701,-8.85335 -3.200004,8.85335 z"
       style="font-family:FreeSans;-inkscape-font-specification:'FreeSans, Normal'"
       id="path1122" />
    <path
       d="m 30.719993,320.21836 q 1.493335,0 2.533336,-0.34666 1.040002,-0.34667 1.520002,-0.90667 0.506668,-0.56 0.693334,-1.09334 0.213334,-0.56 0.213334,-1.17333 0,-2.21334 -3.573338,-3.14667 l -4.826673,-1.28 q -3.813338,-0.98667 -3.813338,-4.53334 0,-2.64001 1.840003,-4.16001 1.866669,-1.54667 5.066673,-1.54667 3.360004,0 5.226673,1.6 1.866669,1.57334 1.893336,4.42668 h -2.34667 q -0.02667,-1.89334 -1.280002,-2.90667 -1.253334,-1.04 -3.573337,-1.04 -1.973336,0 -3.173338,0.90666 -1.173335,0.90667 -1.173335,2.37334 0,1.12 0.720001,1.76 0.720001,0.64 2.480004,1.12 l 4.880006,1.30667 q 1.973336,0.53334 3.040004,1.81334 1.093334,1.28 1.093334,3.06667 0,0.77333 -0.213333,1.54667 -0.186667,0.74666 -0.720001,1.57333 -0.533334,0.8 -1.360002,1.41334 -0.826668,0.61333 -2.213336,1.01333 -1.360002,0.4 -3.093337,0.4 -1.093335,0 -2.10667,-0.18666 -0.986668,-0.16001 -2.026669,-0.61334 -1.040001,-0.48 -1.786669,-1.2 -0.746667,-0.74667 -1.253335,-1.97334 -0.48,-1.22666 -0.506667,-2.82667 h 2.34667 v 0.13334 q 0,0.82666 0.24,1.54667 0.266667,0.72 0.826668,1.41333 0.586667,0.69333 1.706668,1.12 1.146669,0.4 2.720004,0.4 z"
       style="font-family:FreeSans;-inkscape-font-specification:'FreeSans, Normal'"
       id="path1124" />
    <path
       d="m 52.346677,320.21836 q 1.493335,0 2.533337,-0.34666 1.040001,-0.34667 1.520001,-0.90667 0.506668,-0.56 0.693335,-1.09334 0.213333,-0.56 0.213333,-1.17333 0,-2.21334 -3.573338,-3.14667 l -4.826672,-1.28 q -3.813338,-0.98667 -3.813338,-4.53334 0,-2.64001 1.840002,-4.16001 1.866669,-1.54667 5.066673,-1.54667 3.360004,0 5.226673,1.6 1.866669,1.57334 1.893336,4.42668 h -2.34667 q -0.02667,-1.89334 -1.280001,-2.90667 -1.253335,-1.04 -3.573338,-1.04 -1.973336,0 -3.173338,0.90666 -1.173334,0.90667 -1.173334,2.37334 0,1.12 0.720001,1.76 0.72,0.64 2.480003,1.12 l 4.880006,1.30667 q 1.973336,0.53334 3.040004,1.81334 1.093334,1.28 1.093334,3.06667 0,0.77333 -0.213333,1.54667 -0.186667,0.74666 -0.720001,1.57333 -0.533334,0.8 -1.360002,1.41334 -0.826668,0.61333 -2.213336,1.01333 -1.360002,0.4 -3.093337,0.4 -1.093335,0 -2.10667,-0.18666 -0.986667,-0.16001 -2.026669,-0.61334 -1.040001,-0.48 -1.786669,-1.2 -0.746667,-0.74667 -1.253335,-1.97334 -0.48,-1.22666 -0.506667,-2.82667 h 2.34667 v 0.13334 q 0,0.82666 0.24,1.54667 0.266667,0.72 0.826668,1.41333 0.586667,0.69333 1.706669,1.12 1.146668,0.4 2.720003,0.4 z"
       style="font-family:FreeSans;-inkscape-font-specification:'FreeSans, Normal'"
       id="path1126" />
    <path
       d="m 84.693373,312.37835 q 0,4.32001 -2.560003,7.17335 -2.560004,2.85333 -6.826676,2.85333 -4.213338,0 -6.800008,-2.8 -2.58667,-2.82667 -2.58667,-7.38668 0,-4.56 2.58667,-7.36001 2.58667,-2.82667 6.773342,-2.82667 4.266672,0 6.826675,2.82667 2.58667,2.82667 2.58667,7.52001 z m -9.413345,-8.16001 q -3.093338,0 -4.986673,2.21334 -1.893336,2.18667 -1.893336,5.78667 0,3.60001 1.893336,5.81334 1.920002,2.18667 5.013339,2.18667 3.093338,0 4.986673,-2.18667 1.920003,-2.18667 1.920003,-5.70667 0,-3.68001 -1.893336,-5.89334 -1.893336,-2.21334 -5.040006,-2.21334 z"
       style="font-family:FreeSans;-inkscape-font-specification:'FreeSans, Normal'"
       id="path1128" />
    <path
       d="m 90.666666,312.29835 q 0,-1.33333 0.213334,-2.64 0.24,-1.30667 0.880001,-2.72 0.640001,-1.41334 1.573336,-2.45334 0.960001,-1.06667 2.560003,-1.76 1.626668,-0.69334 3.653338,-0.69334 6.346672,0 7.493342,6.34668 h -2.53334 q -0.42666,-2.08001 -1.68,-3.12001 -1.25333,-1.04 -3.573336,-1.04 -2.82667,0 -4.480006,2.16001 -1.626668,2.16 -1.626668,5.89334 0,3.65333 1.706668,5.81334 1.706669,2.13333 4.61334,2.13333 2.400002,0 3.680002,-1.33333 1.28,-1.36 1.73334,-4.18667 h 2.56 q -0.88,7.70667 -8.000009,7.70667 -2.000003,0 -3.600005,-0.66667 -1.573335,-0.69333 -2.533336,-1.73333 -0.933335,-1.04 -1.573335,-2.42667 Q 91.12,316.16502 90.88,314.88502 q -0.213334,-1.28 -0.213334,-2.58667 z"
       style="font-family:FreeSans;-inkscape-font-specification:'FreeSans, Normal'"
       id="path1130" />
    <path
       d="m 117.52002,302.35167 v 19.44003 h -2.50667 v -19.44003 z"
       style="font-family:FreeSans;-inkscape-font-specification:'FreeSans, Normal'"
       id="path1132" />
    <path
       d="m 136.1867,315.95169 h -7.49334 l -2.05333,5.84001 h -2.64001 l 6.93334,-19.44003 h 3.20001 l 6.82667,19.44003 h -2.77333 z m -0.69333,-2.08 -2.98667,-8.85335 -3.2,8.85335 z"
       style="font-family:FreeSans;-inkscape-font-specification:'FreeSans, Normal'"
       id="path1134" />
    <path
       d="m 154.88001,304.53834 v 17.25336 h -2.48 V 304.53834 H 146 v -2.18667 h 15.25335 v 2.18667 z"
       style="font-family:FreeSans;-inkscape-font-specification:'FreeSans, Normal'"
       id="path1136" />
    <path
       d="m 171.0667,302.35167 v 19.44003 h -2.50667 v -19.44003 z"
       style="font-family:FreeSans;-inkscape-font-specification:'FreeSans, Normal'"
       id="path1138" />
    <path
       d="m 196.98672,312.37835 q 0,4.32001 -2.56,7.17335 -2.56,2.85333 -6.82668,2.85333 -4.21333,0 -6.8,-2.8 -2.58667,-2.82667 -2.58667,-7.38668 0,-4.56 2.58667,-7.36001 2.58667,-2.82667 6.77334,-2.82667 4.26667,0 6.82667,2.82667 2.58667,2.82667 2.58667,7.52001 z m -9.41334,-8.16001 q -3.09334,0 -4.98668,2.21334 -1.89333,2.18667 -1.89333,5.78667 0,3.60001 1.89333,5.81334 1.92001,2.18667 5.01334,2.18667 3.09334,0 4.98668,-2.18667 1.92,-2.18667 1.92,-5.70667 0,-3.68001 -1.89334,-5.89334 -1.89333,-2.21334 -5.04,-2.21334 z"
       style="font-family:FreeSans;-inkscape-font-specification:'FreeSans, Normal'"
       id="path1140" />
    <path
       d="m 219.2267,302.35167 v 19.44003 h -2.80001 l -10.05334,-15.76002 v 15.76002 h -2.34667 v -19.44003 h 2.69333 l 10.16002,15.89336 v -15.89336 z"
       style="font-family:FreeSans;-inkscape-font-specification:'FreeSans, Normal'"
       id="path1142" />
    <path
       d="m 237.83999,321.7917 v -19.44003 h 7.49334 q 3.70667,0 5.81334,2.58667 2.10667,2.58667 2.10667,7.12001 0,4.53334 -2.13334,7.14668 -2.10667,2.58667 -5.78667,2.58667 z m 2.48,-2.18667 h 4.58667 q 2.88001,0 4.37334,-1.92 1.49334,-1.92001 1.49334,-5.60001 0,-3.70667 -1.49334,-5.62667 -1.49333,-1.92001 -4.37334,-1.92001 h -4.58667 z"
       style="font-family:FreeSans;-inkscape-font-specification:'FreeSans, Normal'"
       id="path1144" />
    <path
       d="m 262.77334,312.93835 v 6.66668 h 11.46668 v 2.18667 h -13.94668 v -19.44003 h 13.46668 v 2.18667 h -10.98668 v 6.21334 h 10.58668 v 2.18667 z"
       style="font-family:FreeSans;-inkscape-font-specification:'FreeSans, Normal'"
       id="path1146" />
    <path
       d="m 288.00002,320.21836 q 1.49333,0 2.53333,-0.34666 1.04,-0.34667 1.52,-0.90667 0.50667,-0.56 0.69334,-1.09334 0.21333,-0.56 0.21333,-1.17333 0,-2.21334 -3.57334,-3.14667 l -4.82667,-1.28 q -3.81334,-0.98667 -3.81334,-4.53334 0,-2.64001 1.84001,-4.16001 1.86667,-1.54667 5.06667,-1.54667 3.36,0 5.22667,1.6 1.86667,1.57334 1.89334,4.42668 h -2.34667 q -0.0267,-1.89334 -1.28,-2.90667 -1.25334,-1.04 -3.57334,-1.04 -1.97334,0 -3.17334,0.90666 -1.17333,0.90667 -1.17333,2.37334 0,1.12 0.72,1.76 0.72,0.64 2.48,1.12 l 4.88001,1.30667 q 1.97333,0.53334 3.04,1.81334 1.09334,1.28 1.09334,3.06667 0,0.77333 -0.21334,1.54667 -0.18666,0.74666 -0.72,1.57333 -0.53333,0.8 -1.36,1.41334 -0.82667,0.61333 -2.21334,1.01333 -1.36,0.4 -3.09333,0.4 -1.09334,0 -2.10667,-0.18666 -0.98667,-0.16001 -2.02667,-0.61334 -1.04,-0.48 -1.78667,-1.2 -0.74667,-0.74667 -1.25334,-1.97334 -0.48,-1.22666 -0.50666,-2.82667 h 2.34667 v 0.13334 q 0,0.82666 0.24,1.54667 0.26666,0.72 0.82666,1.41333 0.58667,0.69333 1.70667,1.12 1.14667,0.4 2.72001,0.4 z"
       style="font-family:FreeSans;-inkscape-font-specification:'FreeSans, Normal'"
       id="path1148" />
    <path
       d="m 320.21332,297.79167 h 3.28 l -4.37334,3.33334 h -1.73333 z m -4.58668,15.14668 v 6.66668 h 11.46669 v 2.18667 h -13.94669 v -19.44003 h 13.46669 v 2.18667 h -10.98669 v 6.21334 h 10.58668 v 2.18667 z"
       style="font-family:FreeSans;-inkscape-font-specification:'FreeSans, Normal'"
       id="path1150" />
    <path
       d="m 341.41335,304.53834 v 17.25336 h -2.48 v -17.25336 h -6.40001 v -2.18667 h 15.25335 v 2.18667 z"
       style="font-family:FreeSans;-inkscape-font-specification:'FreeSans, Normal'"
       id="path1152" />
    <path
       d="m 367.01335,302.35167 h 2.48 v 13.65335 q 0,2.93334 -2.05333,4.66668 -2.02667,1.73333 -5.44001,1.73333 -3.46667,0 -5.46667,-1.70667 -1.97334,-1.73333 -1.97334,-4.69334 v -13.65335 h 2.48001 v 13.65335 q 0,2.10667 1.33333,3.17334 1.36,1.04 3.62667,1.04 2.34667,0 3.68001,-1.12 1.33333,-1.12 1.33333,-3.09334 z"
       style="font-family:FreeSans;-inkscape-font-specification:'FreeSans, Normal'"
       id="path1154" />
    <path
       d="m 377.60001,321.7917 v -19.44003 h 7.49334 q 3.70667,0 5.81334,2.58667 2.10667,2.58667 2.10667,7.12001 0,4.53334 -2.13333,7.14668 -2.10667,2.58667 -5.78668,2.58667 z m 2.48,-2.18667 h 4.58668 q 2.88,0 4.37334,-1.92 1.49333,-1.92001 1.49333,-5.60001 0,-3.70667 -1.49333,-5.62667 -1.49334,-1.92001 -4.37334,-1.92001 h -4.58668 z"
       style="font-family:FreeSans;-inkscape-font-specification:'FreeSans, Normal'"
       id="path1156" />
    <path
       d="m 403.09338,302.35167 v 19.44003 h -2.50667 v -19.44003 z"
       style="font-family:FreeSans;-inkscape-font-specification:'FreeSans, Normal'"
       id="path1158" />
    <path
       d="m 421.76005,315.95169 h -7.49334 l -2.05334,5.84001 h -2.64 l 6.93334,-19.44003 h 3.20001 l 6.82667,19.44003 h -2.77333 z m -0.69333,-2.08 -2.98667,-8.85335 -3.20001,8.85335 z"
       style="font-family:FreeSans;-inkscape-font-specification:'FreeSans, Normal'"
       id="path1160" />
    <path
       d="m 448.10673,302.35167 v 19.44003 h -2.8 l -10.05335,-15.76002 v 15.76002 h -2.34667 v -19.44003 h 2.69334 l 10.16001,15.89336 v -15.89336 z"
       style="font-family:FreeSans;-inkscape-font-specification:'FreeSans, Normal'"
       id="path1162" />
    <path
       d="m 463.76006,304.53834 v 17.25336 h -2.48 v -17.25336 h -6.40001 v -2.18667 h 15.25335 v 2.18667 z"
       style="font-family:FreeSans;-inkscape-font-specification:'FreeSans, Normal'"
       id="path1164" />
    <path
       d="m 479.86675,312.96502 v 2.77334 h -2.77334 v -2.77334 z"
       style="font-family:FreeSans;-inkscape-font-specification:'FreeSans, Normal'"
       id="path1166" />
    <path
       d="m 489.89337,312.93835 v 6.66668 h 11.46668 v 2.18667 h -13.94668 v -19.44003 h 13.46668 v 2.18667 h -10.98668 v 6.21334 h 10.58668 v 2.18667 z"
       style="font-family:FreeSans;-inkscape-font-specification:'FreeSans, Normal'"
       id="path1168" />
    <path
       d="m 511.09337,312.96502 v 2.77334 h -2.77334 v -2.77334 z"
       style="font-family:FreeSans;-inkscape-font-specification:'FreeSans, Normal'"
       id="path1170" />
    <path
       d="m 525.62666,320.21836 q 1.49334,0 2.53334,-0.34666 1.04,-0.34667 1.52,-0.90667 0.50667,-0.56 0.69334,-1.09334 0.21333,-0.56 0.21333,-1.17333 0,-2.21334 -3.57334,-3.14667 l -4.82667,-1.28 q -3.81334,-0.98667 -3.81334,-4.53334 0,-2.64001 1.84,-4.16001 1.86667,-1.54667 5.06668,-1.54667 3.36,0 5.22667,1.6 1.86667,1.57334 1.89334,4.42668 h -2.34667 q -0.0267,-1.89334 -1.28001,-2.90667 -1.25333,-1.04 -3.57333,-1.04 -1.97334,0 -3.17334,0.90666 -1.17334,0.90667 -1.17334,2.37334 0,1.12 0.72001,1.76 0.72,0.64 2.48,1.12 l 4.88001,1.30667 q 1.97333,0.53334 3.04,1.81334 1.09333,1.28 1.09333,3.06667 0,0.77333 -0.21333,1.54667 -0.18667,0.74666 -0.72,1.57333 -0.53333,0.8 -1.36,1.41334 -0.82667,0.61333 -2.21334,1.01333 -1.36,0.4 -3.09334,0.4 -1.09333,0 -2.10667,-0.18666 -0.98666,-0.16001 -2.02666,-0.61334 -1.04001,-0.48 -1.78667,-1.2 -0.74667,-0.74667 -1.25334,-1.97334 -0.48,-1.22666 -0.50667,-2.82667 h 2.34667 v 0.13334 q 0,0.82666 0.24,1.54667 0.26667,0.72 0.82667,1.41333 0.58667,0.69333 1.70667,1.12 1.14667,0.4 2.72,0.4 z"
       style="font-family:FreeSans;-inkscape-font-specification:'FreeSans, Normal'"
       id="path1172" />
    <path
       d="m 553.25329,312.93835 v 6.66668 h 11.46668 v 2.18667 h -13.94668 v -19.44003 h 13.46668 v 2.18667 h -10.98668 v 6.21334 h 10.58668 v 2.18667 z"
       style="font-family:FreeSans;-inkscape-font-specification:'FreeSans, Normal'"
       id="path1174" />
    <path
       d="m 586.69334,302.35167 v 19.44003 h -2.8 l -10.05335,-15.76002 v 15.76002 h -2.34667 v -19.44003 h 2.69334 l 10.16001,15.89336 v -15.89336 z"
       style="font-family:FreeSans;-inkscape-font-specification:'FreeSans, Normal'"
       id="path1176" />
  </g>
</svg>
