<?xml version="1.0" encoding="UTF-8"?>
<svg viewBox="0 0 264.5833 264.5833" xmlns="http://www.w3.org/2000/svg">
    <path d="M 132.31027 15.712219 C 100.68172 15.712382 96.684365 15.851057 84.249121 16.416569 C 71.831006 16.984784 63.354089 18.949158 55.937154 21.831742 C 48.265164 24.808831 41.757436 28.791534 35.273816 35.272782 C 28.785332 41.75178 24.79962 48.254622 21.810555 55.918551 C 18.918603 63.332401 16.950096 71.805207 16.391248 84.20933 C 15.834769 96.642508 15.688965 100.61796 15.688965 132.2741 C 15.688965 163.93036 15.829603 167.89123 16.393315 180.32439 C 16.964495 192.73338 18.930512 201.20328 21.812622 208.61466 C 24.794455 216.28108 28.779954 222.78414 35.266064 229.26301 C 41.747434 235.74674 48.255553 239.73935 55.922685 242.71645 C 63.34436 245.59892 71.823675 247.56329 84.239303 248.13162 C 96.681845 248.69723 100.65525 248.83597 132.33249 248.83597 C 164.0146 248.83597 167.97808 248.69746 180.42051 248.13162 C 192.83875 247.5634 201.32528 245.59904 208.74695 242.71645 C 216.41657 239.73947 222.91455 235.74674 229.39582 229.26301 C 235.88429 222.78414 239.87 216.28117 242.85908 208.61724 C 245.72661 201.2034 247.69511 192.73059 248.27839 180.32646 C 248.83721 167.89327 248.98325 163.93024 248.98325 132.2741 C 248.98325 100.61784 248.83721 96.644693 248.27839 84.211397 C 247.69511 71.802412 245.72661 63.332496 242.85908 55.921134 C 239.87 48.254717 235.88429 41.751662 229.39582 35.272782 C 222.9072 28.789043 216.41896 24.80646 208.73971 21.831742 C 201.30334 18.949277 192.82158 16.984784 180.40346 16.416569 C 167.9682 15.851057 163.9852 15.712382 132.34696 15.712219 L 132.31027 15.712219 z M 121.88248 36.6882 L 121.88248 36.717655 C 124.98835 36.712755 128.45386 36.717655 132.34696 36.717655 C 163.49204 36.717655 167.18354 36.829404 179.48258 37.387899 C 190.85581 37.907617 197.02831 39.806684 201.14018 41.402124 C 206.58376 43.514794 210.46486 46.040328 214.54504 50.119938 C 218.62775 54.199667 221.15503 58.084846 223.27423 63.524288 C 224.87086 67.628206 226.77396 73.796403 227.29155 85.16121 C 227.85052 97.448657 227.97213 101.13988 227.97213 132.24722 C 227.97213 163.35447 227.85052 167.04579 227.29155 179.33324 C 226.77147 190.69793 224.87086 196.86626 223.27423 200.97016 C 221.16001 206.40974 218.62775 210.28294 214.54504 214.36004 C 210.46248 218.43978 206.58613 220.96518 201.14018 223.07786 C 197.03317 224.68062 190.85581 226.57495 179.48258 227.09467 C 167.18603 227.65314 163.49204 227.77473 132.34696 227.77473 C 101.19951 227.77473 97.508032 227.65314 85.211336 227.09467 C 73.838231 226.57021 67.665514 224.67124 63.55116 223.07579 C 58.107568 220.96312 54.21905 218.43757 50.136475 214.35798 C 46.053782 210.27835 43.526484 206.4024 41.407292 200.96034 C 39.810663 196.85644 37.908066 190.68863 37.390483 179.32394 C 36.831514 167.03636 36.719722 163.34511 36.719722 132.21829 C 36.719722 101.09159 36.831514 97.419718 37.390483 85.132271 C 37.910556 73.767467 39.810663 67.598961 41.407292 63.490181 C 43.521504 58.050623 46.053782 54.165442 50.136475 50.085832 C 54.21905 46.006103 58.107568 43.480382 63.55116 41.36285 C 67.663023 39.760059 73.838231 37.866181 85.211336 37.343974 C 95.972117 36.858285 100.14214 36.712627 121.88248 36.6882 z M 194.61293 56.066862 L 194.61293 56.071513 C 186.88494 56.071513 180.61482 62.329603 180.61482 70.054122 C 180.61482 77.776389 186.88494 84.041899 194.61293 84.041899 C 202.34076 84.041899 208.61052 77.776389 208.61052 70.054122 C 208.61052 62.331975 202.34088 56.066862 194.61293 56.066862 z M 132.34438 72.414701 C 99.263673 72.416111 72.443123 99.217609 72.443123 132.2741 C 72.443123 165.33143 99.265066 192.12109 132.34696 192.12109 C 165.42886 192.12109 192.24098 165.33143 192.24098 132.2741 C 192.24098 99.217609 165.42766 72.416111 132.34696 72.414701 L 132.34438 72.414701 z M 132.34696 93.420138 C 153.81991 93.420138 171.22986 110.81467 171.22986 132.2741 C 171.22986 153.73116 153.81991 171.12806 132.34696 171.12806 C 110.87164 171.12806 93.464063 153.73116 93.464062 132.2741 C 93.464062 110.81467 110.87164 93.420138 132.34696 93.420138 z " />
</svg>
