<?xml version="1.0" encoding="UTF-8"?>
<svg viewBox="0 0 240.1 240.1" xmlns="http://www.w3.org/2000/svg">
   <path d="M 26.500323,107.70941 C 84.681239,82.442269 123.41311,65.652918 142.86215,57.50759 c 55.35499,-23.106135 66.99118,-27.095684 74.47157,-27.261915 1.66232,0 5.3194,0.332462 7.81287,2.327237 1.99478,1.662311 2.49346,3.823317 2.82593,5.48563 0.33247,1.66231 0.66493,5.153165 0.33247,7.812864 -2.99216,31.583928 -15.9582,108.216514 -22.60744,143.457524 -2.82593,14.9608 -8.31157,19.94774 -13.63097,20.44643 -11.63618,0.99739 -20.44643,-7.64663 -31.58392,-14.9608 -17.62051,-11.46995 -27.42815,-18.6179 -44.54996,-29.92162 -19.781508,-12.96604 -6.98171,-20.11398 4.32202,-31.75016 2.99215,-2.99216 54.02513,-49.536892 55.02252,-53.692672 0.16623,-0.498694 0.16623,-2.493468 -0.99739,-3.490856 -1.16363,-0.997386 -2.82593,-0.664924 -4.15578,-0.332462 -1.82854,0.332462 -29.75539,18.950354 -84.112981,55.68745 -7.979098,5.48563 -15.127038,8.14533 -21.610055,7.9791 -7.14794,-0.16624 -20.778898,-3.98956 -31.085232,-7.31418 -12.467339,-3.98954 -22.441211,-6.15055 -21.610055,-13.13226 0.498693,-3.65709 5.48563,-7.31418 14.794576,-11.13749 z"/>
</svg>
